<?xml version="1.0" encoding="UTF-8" standalone="no"?>
<!DOCTYPE svg PUBLIC "-//W3C//DTD SVG 1.1//EN"
 "http://www.w3.org/Graphics/SVG/1.1/DTD/svg11.dtd">
<!-- Generated by graphviz version 2.40.1 (20161225.0304)
 -->
<!-- Title: G Pages: 1 -->
<svg width="1176pt" height="2348pt"
 viewBox="0.00 0.00 1175.65 2348.00" xmlns="http://www.w3.org/2000/svg" xmlns:xlink="http://www.w3.org/1999/xlink">
<g id="graph0" class="graph" transform="scale(1 1) rotate(0) translate(4 2344)">
<title>G</title>
<polygon fill="#ffffff" stroke="transparent" points="-4,4 -4,-2344 1171.6516,-2344 1171.6516,4 -4,4"/>
<!-- invoke init hook -->
<g id="node1" class="node">
<title>invoke init hook</title>
<path fill="#00ced1" stroke="#000000" d="M511.8046,-2268C511.8046,-2268 428.2502,-2268 428.2502,-2268 422.2502,-2268 416.2502,-2262 416.2502,-2256 416.2502,-2256 416.2502,-2244 416.2502,-2244 416.2502,-2238 422.2502,-2232 428.2502,-2232 428.2502,-2232 511.8046,-2232 511.8046,-2232 517.8046,-2232 523.8046,-2238 523.8046,-2244 523.8046,-2244 523.8046,-2256 523.8046,-2256 523.8046,-2262 517.8046,-2268 511.8046,-2268"/>
<text text-anchor="middle" x="470.0274" y="-2245.8" font-family="Times,serif" font-size="14.00" fill="#000000">invoke init hook</text>
</g>
<!-- create container -->
<g id="node3" class="node">
<title>create container</title>
<path fill="#ffd700" stroke="#000000" d="M510.5226,-2196C510.5226,-2196 429.5322,-2196 429.5322,-2196 423.5322,-2196 417.5322,-2190 417.5322,-2184 417.5322,-2184 417.5322,-2172 417.5322,-2172 417.5322,-2166 423.5322,-2160 429.5322,-2160 429.5322,-2160 510.5226,-2160 510.5226,-2160 516.5226,-2160 522.5226,-2166 522.5226,-2172 522.5226,-2172 522.5226,-2184 522.5226,-2184 522.5226,-2190 516.5226,-2196 510.5226,-2196"/>
<text text-anchor="middle" x="470.0274" y="-2173.8" font-family="Times,serif" font-size="14.00" fill="#000000">create container</text>
</g>
<!-- invoke init hook&#45;&gt;create container -->
<g id="edge2" class="edge">
<title>invoke init hook&#45;&gt;create container</title>
<path fill="none" stroke="#000000" d="M470.0274,-2231.8314C470.0274,-2224.131 470.0274,-2214.9743 470.0274,-2206.4166"/>
<polygon fill="#000000" stroke="#000000" points="473.5275,-2206.4132 470.0274,-2196.4133 466.5275,-2206.4133 473.5275,-2206.4132"/>
</g>
<!-- start -->
<g id="node2" class="node">
<title>start</title>
<path fill="#ffd700" stroke="#000000" d="M485.0274,-2340C485.0274,-2340 455.0274,-2340 455.0274,-2340 449.0274,-2340 443.0274,-2334 443.0274,-2328 443.0274,-2328 443.0274,-2316 443.0274,-2316 443.0274,-2310 449.0274,-2304 455.0274,-2304 455.0274,-2304 485.0274,-2304 485.0274,-2304 491.0274,-2304 497.0274,-2310 497.0274,-2316 497.0274,-2316 497.0274,-2328 497.0274,-2328 497.0274,-2334 491.0274,-2340 485.0274,-2340"/>
<text text-anchor="middle" x="470.0274" y="-2317.8" font-family="Times,serif" font-size="14.00" fill="#000000">start</text>
</g>
<!-- start&#45;&gt;invoke init hook -->
<g id="edge1" class="edge">
<title>start&#45;&gt;invoke init hook</title>
<path fill="none" stroke="#000000" d="M470.0274,-2303.8314C470.0274,-2296.131 470.0274,-2286.9743 470.0274,-2278.4166"/>
<polygon fill="#000000" stroke="#000000" points="473.5275,-2278.4132 470.0274,-2268.4133 466.5275,-2278.4133 473.5275,-2278.4132"/>
</g>
<!-- add singletons to container -->
<g id="node4" class="node">
<title>add singletons to container</title>
<path fill="#ffd700" stroke="#000000" d="M541.4945,-2124C541.4945,-2124 398.5603,-2124 398.5603,-2124 392.5603,-2124 386.5603,-2118 386.5603,-2112 386.5603,-2112 386.5603,-2100 386.5603,-2100 386.5603,-2094 392.5603,-2088 398.5603,-2088 398.5603,-2088 541.4945,-2088 541.4945,-2088 547.4945,-2088 553.4945,-2094 553.4945,-2100 553.4945,-2100 553.4945,-2112 553.4945,-2112 553.4945,-2118 547.4945,-2124 541.4945,-2124"/>
<text text-anchor="middle" x="470.0274" y="-2101.8" font-family="Times,serif" font-size="14.00" fill="#000000">add singletons to container</text>
</g>
<!-- create container&#45;&gt;add singletons to container -->
<g id="edge3" class="edge">
<title>create container&#45;&gt;add singletons to container</title>
<path fill="none" stroke="#000000" d="M470.0274,-2159.8314C470.0274,-2152.131 470.0274,-2142.9743 470.0274,-2134.4166"/>
<polygon fill="#000000" stroke="#000000" points="473.5275,-2134.4132 470.0274,-2124.4133 466.5275,-2134.4133 473.5275,-2134.4132"/>
</g>
<!-- add prototypes to container -->
<g id="node5" class="node">
<title>add prototypes to container</title>
<path fill="#ffd700" stroke="#000000" d="M542.3193,-2052C542.3193,-2052 397.7355,-2052 397.7355,-2052 391.7355,-2052 385.7355,-2046 385.7355,-2040 385.7355,-2040 385.7355,-2028 385.7355,-2028 385.7355,-2022 391.7355,-2016 397.7355,-2016 397.7355,-2016 542.3193,-2016 542.3193,-2016 548.3193,-2016 554.3193,-2022 554.3193,-2028 554.3193,-2028 554.3193,-2040 554.3193,-2040 554.3193,-2046 548.3193,-2052 542.3193,-2052"/>
<text text-anchor="middle" x="470.0274" y="-2029.8" font-family="Times,serif" font-size="14.00" fill="#000000">add prototypes to container</text>
</g>
<!-- add singletons to container&#45;&gt;add prototypes to container -->
<g id="edge4" class="edge">
<title>add singletons to container&#45;&gt;add prototypes to container</title>
<path fill="none" stroke="#000000" d="M470.0274,-2087.8314C470.0274,-2080.131 470.0274,-2070.9743 470.0274,-2062.4166"/>
<polygon fill="#000000" stroke="#000000" points="473.5275,-2062.4132 470.0274,-2052.4133 466.5275,-2062.4133 473.5275,-2062.4132"/>
</g>
<!-- update framework status to Initialized -->
<g id="node6" class="node">
<title>update framework status to Initialized</title>
<path fill="#ffd700" stroke="#000000" d="M572.2885,-1980C572.2885,-1980 367.7663,-1980 367.7663,-1980 361.7663,-1980 355.7663,-1974 355.7663,-1968 355.7663,-1968 355.7663,-1956 355.7663,-1956 355.7663,-1950 361.7663,-1944 367.7663,-1944 367.7663,-1944 572.2885,-1944 572.2885,-1944 578.2885,-1944 584.2885,-1950 584.2885,-1956 584.2885,-1956 584.2885,-1968 584.2885,-1968 584.2885,-1974 578.2885,-1980 572.2885,-1980"/>
<text text-anchor="middle" x="470.0274" y="-1957.8" font-family="Times,serif" font-size="14.00" fill="#000000">update framework status to Initialized</text>
</g>
<!-- add prototypes to container&#45;&gt;update framework status to Initialized -->
<g id="edge5" class="edge">
<title>add prototypes to container&#45;&gt;update framework status to Initialized</title>
<path fill="none" stroke="#000000" d="M470.0274,-2015.8314C470.0274,-2008.131 470.0274,-1998.9743 470.0274,-1990.4166"/>
<polygon fill="#000000" stroke="#000000" points="473.5275,-1990.4132 470.0274,-1980.4133 466.5275,-1990.4133 473.5275,-1990.4132"/>
</g>
<!-- invoke preBind hook -->
<g id="node7" class="node">
<title>invoke preBind hook</title>
<path fill="#00ced1" stroke="#000000" d="M525.2352,-1908C525.2352,-1908 414.8196,-1908 414.8196,-1908 408.8196,-1908 402.8196,-1902 402.8196,-1896 402.8196,-1896 402.8196,-1884 402.8196,-1884 402.8196,-1878 408.8196,-1872 414.8196,-1872 414.8196,-1872 525.2352,-1872 525.2352,-1872 531.2352,-1872 537.2352,-1878 537.2352,-1884 537.2352,-1884 537.2352,-1896 537.2352,-1896 537.2352,-1902 531.2352,-1908 525.2352,-1908"/>
<text text-anchor="middle" x="470.0274" y="-1885.8" font-family="Times,serif" font-size="14.00" fill="#000000">invoke preBind hook</text>
</g>
<!-- update framework status to Initialized&#45;&gt;invoke preBind hook -->
<g id="edge6" class="edge">
<title>update framework status to Initialized&#45;&gt;invoke preBind hook</title>
<path fill="none" stroke="#000000" d="M470.0274,-1943.8314C470.0274,-1936.131 470.0274,-1926.9743 470.0274,-1918.4166"/>
<polygon fill="#000000" stroke="#000000" points="473.5275,-1918.4132 470.0274,-1908.4133 466.5275,-1918.4133 473.5275,-1918.4132"/>
</g>
<!-- register providers -->
<g id="node8" class="node">
<title>register providers</title>
<path fill="#7fff00" stroke="#000000" d="M515.3751,-1836C515.3751,-1836 424.6797,-1836 424.6797,-1836 418.6797,-1836 412.6797,-1830 412.6797,-1824 412.6797,-1824 412.6797,-1812 412.6797,-1812 412.6797,-1806 418.6797,-1800 424.6797,-1800 424.6797,-1800 515.3751,-1800 515.3751,-1800 521.3751,-1800 527.3751,-1806 527.3751,-1812 527.3751,-1812 527.3751,-1824 527.3751,-1824 527.3751,-1830 521.3751,-1836 515.3751,-1836"/>
<text text-anchor="middle" x="470.0274" y="-1813.8" font-family="Times,serif" font-size="14.00" fill="#000000">register providers</text>
</g>
<!-- invoke preBind hook&#45;&gt;register providers -->
<g id="edge7" class="edge">
<title>invoke preBind hook&#45;&gt;register providers</title>
<path fill="none" stroke="#000000" d="M470.0274,-1871.8314C470.0274,-1864.131 470.0274,-1854.9743 470.0274,-1846.4166"/>
<polygon fill="#000000" stroke="#000000" points="473.5275,-1846.4132 470.0274,-1836.4133 466.5275,-1846.4133 473.5275,-1846.4132"/>
</g>
<!-- register provider .:*scheduler.provider -->
<g id="node9" class="node">
<title>register provider .:*scheduler.provider</title>
<path fill="#ffd700" stroke="#000000" d="M228.8869,-1764C228.8869,-1764 21.1679,-1764 21.1679,-1764 15.1679,-1764 9.1679,-1758 9.1679,-1752 9.1679,-1752 9.1679,-1740 9.1679,-1740 9.1679,-1734 15.1679,-1728 21.1679,-1728 21.1679,-1728 228.8869,-1728 228.8869,-1728 234.8869,-1728 240.8869,-1734 240.8869,-1740 240.8869,-1740 240.8869,-1752 240.8869,-1752 240.8869,-1758 234.8869,-1764 228.8869,-1764"/>
<text text-anchor="middle" x="125.0274" y="-1741.8" font-family="Times,serif" font-size="14.00" fill="#000000">register provider .:*scheduler.provider</text>
</g>
<!-- register providers&#45;&gt;register provider .:*scheduler.provider -->
<g id="edge8" class="edge">
<title>register providers&#45;&gt;register provider .:*scheduler.provider</title>
<path fill="none" stroke="#000000" d="M412.6704,-1806.0298C360.6702,-1795.1776 282.9789,-1778.9638 221.4425,-1766.1214"/>
<polygon fill="#000000" stroke="#000000" points="221.8268,-1762.6263 211.3227,-1764.0094 220.3967,-1769.4787 221.8268,-1762.6263"/>
</g>
<!-- register provider .:*web.provider -->
<g id="node10" class="node">
<title>register provider .:*web.provider</title>
<path fill="#ffd700" stroke="#000000" d="M447.5682,-1764C447.5682,-1764 270.4866,-1764 270.4866,-1764 264.4866,-1764 258.4866,-1758 258.4866,-1752 258.4866,-1752 258.4866,-1740 258.4866,-1740 258.4866,-1734 264.4866,-1728 270.4866,-1728 270.4866,-1728 447.5682,-1728 447.5682,-1728 453.5682,-1728 459.5682,-1734 459.5682,-1740 459.5682,-1740 459.5682,-1752 459.5682,-1752 459.5682,-1758 453.5682,-1764 447.5682,-1764"/>
<text text-anchor="middle" x="359.0274" y="-1741.8" font-family="Times,serif" font-size="14.00" fill="#000000">register provider .:*web.provider</text>
</g>
<!-- register providers&#45;&gt;register provider .:*web.provider -->
<g id="edge9" class="edge">
<title>register providers&#45;&gt;register provider .:*web.provider</title>
<path fill="none" stroke="#000000" d="M442.0174,-1799.8314C427.9513,-1790.7074 410.7334,-1779.539 395.6341,-1769.7449"/>
<polygon fill="#000000" stroke="#000000" points="397.3227,-1766.6684 387.0284,-1764.1628 393.5134,-1772.5412 397.3227,-1766.6684"/>
</g>
<!-- register provider .:*event.provider -->
<g id="node11" class="node">
<title>register provider .:*event.provider</title>
<path fill="#ffd700" stroke="#000000" d="M674.0668,-1764C674.0668,-1764 489.988,-1764 489.988,-1764 483.988,-1764 477.988,-1758 477.988,-1752 477.988,-1752 477.988,-1740 477.988,-1740 477.988,-1734 483.988,-1728 489.988,-1728 489.988,-1728 674.0668,-1728 674.0668,-1728 680.0668,-1728 686.0668,-1734 686.0668,-1740 686.0668,-1740 686.0668,-1752 686.0668,-1752 686.0668,-1758 680.0668,-1764 674.0668,-1764"/>
<text text-anchor="middle" x="582.0274" y="-1741.8" font-family="Times,serif" font-size="14.00" fill="#000000">register provider .:*event.provider</text>
</g>
<!-- register providers&#45;&gt;register provider .:*event.provider -->
<g id="edge10" class="edge">
<title>register providers&#45;&gt;register provider .:*event.provider</title>
<path fill="none" stroke="#000000" d="M498.2897,-1799.8314C512.4826,-1790.7074 529.8556,-1779.539 545.091,-1769.7449"/>
<polygon fill="#000000" stroke="#000000" points="547.255,-1772.5146 553.7741,-1764.1628 543.4696,-1766.6263 547.255,-1772.5146"/>
</g>
<!-- register provider github.com/mylxsw/glacier/example/job:job.ServiceProvider -->
<g id="node12" class="node">
<title>register provider github.com/mylxsw/glacier/example/job:job.ServiceProvider</title>
<path fill="#ffd700" stroke="#000000" d="M1146.0804,-1764C1146.0804,-1764 715.9744,-1764 715.9744,-1764 709.9744,-1764 703.9744,-1758 703.9744,-1752 703.9744,-1752 703.9744,-1740 703.9744,-1740 703.9744,-1734 709.9744,-1728 715.9744,-1728 715.9744,-1728 1146.0804,-1728 1146.0804,-1728 1152.0804,-1728 1158.0804,-1734 1158.0804,-1740 1158.0804,-1740 1158.0804,-1752 1158.0804,-1752 1158.0804,-1758 1152.0804,-1764 1146.0804,-1764"/>
<text text-anchor="middle" x="931.0274" y="-1741.8" font-family="Times,serif" font-size="14.00" fill="#000000">register provider github.com/mylxsw/glacier/example/job:job.ServiceProvider</text>
</g>
<!-- register providers&#45;&gt;register provider github.com/mylxsw/glacier/example/job:job.ServiceProvider -->
<g id="edge11" class="edge">
<title>register providers&#45;&gt;register provider github.com/mylxsw/glacier/example/job:job.ServiceProvider</title>
<path fill="none" stroke="#000000" d="M527.4813,-1809.0267C596.693,-1798.2171 714.9583,-1779.7462 805.6219,-1765.5861"/>
<polygon fill="#000000" stroke="#000000" points="806.3577,-1769.0137 815.6978,-1764.0124 805.2774,-1762.0976 806.3577,-1769.0137"/>
</g>
<!-- register providers done -->
<g id="node13" class="node">
<title>register providers done</title>
<path fill="#ffd700" stroke="#000000" d="M530.5892,-1692C530.5892,-1692 409.4656,-1692 409.4656,-1692 403.4656,-1692 397.4656,-1686 397.4656,-1680 397.4656,-1680 397.4656,-1668 397.4656,-1668 397.4656,-1662 403.4656,-1656 409.4656,-1656 409.4656,-1656 530.5892,-1656 530.5892,-1656 536.5892,-1656 542.5892,-1662 542.5892,-1668 542.5892,-1668 542.5892,-1680 542.5892,-1680 542.5892,-1686 536.5892,-1692 530.5892,-1692"/>
<text text-anchor="middle" x="470.0274" y="-1669.8" font-family="Times,serif" font-size="14.00" fill="#000000">register providers done</text>
</g>
<!-- register provider .:*scheduler.provider&#45;&gt;register providers done -->
<g id="edge12" class="edge">
<title>register provider .:*scheduler.provider&#45;&gt;register providers done</title>
<path fill="none" stroke="#000000" d="M211.6402,-1727.9243C265.4572,-1716.6929 334.2481,-1702.3366 387.3178,-1691.2611"/>
<polygon fill="#000000" stroke="#000000" points="388.3006,-1694.6315 397.3746,-1689.1623 386.8705,-1687.7792 388.3006,-1694.6315"/>
</g>
<!-- register provider .:*web.provider&#45;&gt;register providers done -->
<g id="edge13" class="edge">
<title>register provider .:*web.provider&#45;&gt;register providers done</title>
<path fill="none" stroke="#000000" d="M387.0374,-1727.8314C401.1035,-1718.7074 418.3214,-1707.539 433.4207,-1697.7449"/>
<polygon fill="#000000" stroke="#000000" points="435.5414,-1700.5412 442.0264,-1692.1628 431.7321,-1694.6684 435.5414,-1700.5412"/>
</g>
<!-- register provider .:*event.provider&#45;&gt;register providers done -->
<g id="edge14" class="edge">
<title>register provider .:*event.provider&#45;&gt;register providers done</title>
<path fill="none" stroke="#000000" d="M553.7651,-1727.8314C539.5722,-1718.7074 522.1992,-1707.539 506.9638,-1697.7449"/>
<polygon fill="#000000" stroke="#000000" points="508.5852,-1694.6263 498.2807,-1692.1628 504.7998,-1700.5146 508.5852,-1694.6263"/>
</g>
<!-- register provider github.com/mylxsw/glacier/example/job:job.ServiceProvider&#45;&gt;register providers done -->
<g id="edge15" class="edge">
<title>register provider github.com/mylxsw/glacier/example/job:job.ServiceProvider&#45;&gt;register providers done</title>
<path fill="none" stroke="#000000" d="M815.5899,-1727.9707C733.8244,-1715.2004 626.0786,-1698.3724 552.7828,-1686.9249"/>
<polygon fill="#000000" stroke="#000000" points="553.0957,-1683.4314 542.6754,-1685.3463 552.0155,-1690.3476 553.0957,-1683.4314"/>
</g>
<!-- register services -->
<g id="node14" class="node">
<title>register services</title>
<path fill="#7fff00" stroke="#000000" d="M511.0887,-1620C511.0887,-1620 428.9661,-1620 428.9661,-1620 422.9661,-1620 416.9661,-1614 416.9661,-1608 416.9661,-1608 416.9661,-1596 416.9661,-1596 416.9661,-1590 422.9661,-1584 428.9661,-1584 428.9661,-1584 511.0887,-1584 511.0887,-1584 517.0887,-1584 523.0887,-1590 523.0887,-1596 523.0887,-1596 523.0887,-1608 523.0887,-1608 523.0887,-1614 517.0887,-1620 511.0887,-1620"/>
<text text-anchor="middle" x="470.0274" y="-1597.8" font-family="Times,serif" font-size="14.00" fill="#000000">register services</text>
</g>
<!-- register providers done&#45;&gt;register services -->
<g id="edge16" class="edge">
<title>register providers done&#45;&gt;register services</title>
<path fill="none" stroke="#000000" d="M470.0274,-1655.8314C470.0274,-1648.131 470.0274,-1638.9743 470.0274,-1630.4166"/>
<polygon fill="#000000" stroke="#000000" points="473.5275,-1630.4132 470.0274,-1620.4133 466.5275,-1630.4133 473.5275,-1630.4132"/>
</g>
<!-- register service .:*service.Demo2Service -->
<g id="node15" class="node">
<title>register service .:*service.Demo2Service</title>
<path fill="#ffd700" stroke="#000000" d="M580.863,-1548C580.863,-1548 359.1918,-1548 359.1918,-1548 353.1918,-1548 347.1918,-1542 347.1918,-1536 347.1918,-1536 347.1918,-1524 347.1918,-1524 347.1918,-1518 353.1918,-1512 359.1918,-1512 359.1918,-1512 580.863,-1512 580.863,-1512 586.863,-1512 592.863,-1518 592.863,-1524 592.863,-1524 592.863,-1536 592.863,-1536 592.863,-1542 586.863,-1548 580.863,-1548"/>
<text text-anchor="middle" x="470.0274" y="-1525.8" font-family="Times,serif" font-size="14.00" fill="#000000">register service .:*service.Demo2Service</text>
</g>
<!-- register services&#45;&gt;register service .:*service.Demo2Service -->
<g id="edge17" class="edge">
<title>register services&#45;&gt;register service .:*service.Demo2Service</title>
<path fill="none" stroke="#000000" d="M470.0274,-1583.8314C470.0274,-1576.131 470.0274,-1566.9743 470.0274,-1558.4166"/>
<polygon fill="#000000" stroke="#000000" points="473.5275,-1558.4132 470.0274,-1548.4133 466.5275,-1558.4133 473.5275,-1558.4132"/>
</g>
<!-- register services done -->
<g id="node16" class="node">
<title>register services done</title>
<path fill="#ffd700" stroke="#000000" d="M526.8027,-1476C526.8027,-1476 413.2521,-1476 413.2521,-1476 407.2521,-1476 401.2521,-1470 401.2521,-1464 401.2521,-1464 401.2521,-1452 401.2521,-1452 401.2521,-1446 407.2521,-1440 413.2521,-1440 413.2521,-1440 526.8027,-1440 526.8027,-1440 532.8027,-1440 538.8027,-1446 538.8027,-1452 538.8027,-1452 538.8027,-1464 538.8027,-1464 538.8027,-1470 532.8027,-1476 526.8027,-1476"/>
<text text-anchor="middle" x="470.0274" y="-1453.8" font-family="Times,serif" font-size="14.00" fill="#000000">register services done</text>
</g>
<!-- register service .:*service.Demo2Service&#45;&gt;register services done -->
<g id="edge18" class="edge">
<title>register service .:*service.Demo2Service&#45;&gt;register services done</title>
<path fill="none" stroke="#000000" d="M470.0274,-1511.8314C470.0274,-1504.131 470.0274,-1494.9743 470.0274,-1486.4166"/>
<polygon fill="#000000" stroke="#000000" points="473.5275,-1486.4132 470.0274,-1476.4133 466.5275,-1486.4133 473.5275,-1486.4132"/>
</g>
<!-- start async runners -->
<g id="node17" class="node">
<title>start async runners</title>
<path fill="#7fff00" stroke="#000000" d="M518.4826,-1404C518.4826,-1404 421.5722,-1404 421.5722,-1404 415.5722,-1404 409.5722,-1398 409.5722,-1392 409.5722,-1392 409.5722,-1380 409.5722,-1380 409.5722,-1374 415.5722,-1368 421.5722,-1368 421.5722,-1368 518.4826,-1368 518.4826,-1368 524.4826,-1368 530.4826,-1374 530.4826,-1380 530.4826,-1380 530.4826,-1392 530.4826,-1392 530.4826,-1398 524.4826,-1404 518.4826,-1404"/>
<text text-anchor="middle" x="470.0274" y="-1381.8" font-family="Times,serif" font-size="14.00" fill="#000000">start async runners</text>
</g>
<!-- register services done&#45;&gt;start async runners -->
<g id="edge19" class="edge">
<title>register services done&#45;&gt;start async runners</title>
<path fill="none" stroke="#000000" d="M470.0274,-1439.8314C470.0274,-1432.131 470.0274,-1422.9743 470.0274,-1414.4166"/>
<polygon fill="#000000" stroke="#000000" points="473.5275,-1414.4132 470.0274,-1404.4133 466.5275,-1414.4133 473.5275,-1414.4132"/>
</g>
<!-- start async runner 0 -->
<g id="node18" class="node">
<title>start async runner 0</title>
<path fill="#ffd700" stroke="#000000" d="M377.038,-1332C377.038,-1332 275.0168,-1332 275.0168,-1332 269.0168,-1332 263.0168,-1326 263.0168,-1320 263.0168,-1320 263.0168,-1308 263.0168,-1308 263.0168,-1302 269.0168,-1296 275.0168,-1296 275.0168,-1296 377.038,-1296 377.038,-1296 383.038,-1296 389.038,-1302 389.038,-1308 389.038,-1308 389.038,-1320 389.038,-1320 389.038,-1326 383.038,-1332 377.038,-1332"/>
<text text-anchor="middle" x="326.0274" y="-1309.8" font-family="Times,serif" font-size="14.00" fill="#000000">start async runner 0</text>
</g>
<!-- start async runners&#45;&gt;start async runner 0 -->
<g id="edge20" class="edge">
<title>start async runners&#45;&gt;start async runner 0</title>
<path fill="none" stroke="#000000" d="M433.6901,-1367.8314C414.6878,-1358.3302 391.2516,-1346.6121 371.1022,-1336.5374"/>
<polygon fill="#000000" stroke="#000000" points="372.6129,-1333.3797 362.1034,-1332.038 369.4824,-1339.6407 372.6129,-1333.3797"/>
</g>
<!-- start async runner 1 -->
<g id="node19" class="node">
<title>start async runner 1</title>
<path fill="#ffd700" stroke="#000000" d="M521.038,-1332C521.038,-1332 419.0168,-1332 419.0168,-1332 413.0168,-1332 407.0168,-1326 407.0168,-1320 407.0168,-1320 407.0168,-1308 407.0168,-1308 407.0168,-1302 413.0168,-1296 419.0168,-1296 419.0168,-1296 521.038,-1296 521.038,-1296 527.038,-1296 533.038,-1302 533.038,-1308 533.038,-1308 533.038,-1320 533.038,-1320 533.038,-1326 527.038,-1332 521.038,-1332"/>
<text text-anchor="middle" x="470.0274" y="-1309.8" font-family="Times,serif" font-size="14.00" fill="#000000">start async runner 1</text>
</g>
<!-- start async runners&#45;&gt;start async runner 1 -->
<g id="edge21" class="edge">
<title>start async runners&#45;&gt;start async runner 1</title>
<path fill="none" stroke="#000000" d="M470.0274,-1367.8314C470.0274,-1360.131 470.0274,-1350.9743 470.0274,-1342.4166"/>
<polygon fill="#000000" stroke="#000000" points="473.5275,-1342.4132 470.0274,-1332.4133 466.5275,-1342.4133 473.5275,-1342.4132"/>
</g>
<!-- start async runner 2 -->
<g id="node20" class="node">
<title>start async runner 2</title>
<path fill="#ffd700" stroke="#000000" d="M665.038,-1332C665.038,-1332 563.0168,-1332 563.0168,-1332 557.0168,-1332 551.0168,-1326 551.0168,-1320 551.0168,-1320 551.0168,-1308 551.0168,-1308 551.0168,-1302 557.0168,-1296 563.0168,-1296 563.0168,-1296 665.038,-1296 665.038,-1296 671.038,-1296 677.038,-1302 677.038,-1308 677.038,-1308 677.038,-1320 677.038,-1320 677.038,-1326 671.038,-1332 665.038,-1332"/>
<text text-anchor="middle" x="614.0274" y="-1309.8" font-family="Times,serif" font-size="14.00" fill="#000000">start async runner 2</text>
</g>
<!-- start async runners&#45;&gt;start async runner 2 -->
<g id="edge22" class="edge">
<title>start async runners&#45;&gt;start async runner 2</title>
<path fill="none" stroke="#000000" d="M506.3647,-1367.8314C525.367,-1358.3302 548.8032,-1346.6121 568.9526,-1336.5374"/>
<polygon fill="#000000" stroke="#000000" points="570.5724,-1339.6407 577.9514,-1332.038 567.4419,-1333.3797 570.5724,-1339.6407"/>
</g>
<!-- all async runners started -->
<g id="node21" class="node">
<title>all async runners started</title>
<path fill="#ffd700" stroke="#000000" d="M533.6934,-1260C533.6934,-1260 406.3614,-1260 406.3614,-1260 400.3614,-1260 394.3614,-1254 394.3614,-1248 394.3614,-1248 394.3614,-1236 394.3614,-1236 394.3614,-1230 400.3614,-1224 406.3614,-1224 406.3614,-1224 533.6934,-1224 533.6934,-1224 539.6934,-1224 545.6934,-1230 545.6934,-1236 545.6934,-1236 545.6934,-1248 545.6934,-1248 545.6934,-1254 539.6934,-1260 533.6934,-1260"/>
<text text-anchor="middle" x="470.0274" y="-1237.8" font-family="Times,serif" font-size="14.00" fill="#000000">all async runners started</text>
</g>
<!-- start async runner 0&#45;&gt;all async runners started -->
<g id="edge23" class="edge">
<title>start async runner 0&#45;&gt;all async runners started</title>
<path fill="none" stroke="#000000" d="M362.3647,-1295.8314C381.367,-1286.3302 404.8032,-1274.6121 424.9526,-1264.5374"/>
<polygon fill="#000000" stroke="#000000" points="426.5724,-1267.6407 433.9514,-1260.038 423.4419,-1261.3797 426.5724,-1267.6407"/>
</g>
<!-- start async runner 1&#45;&gt;all async runners started -->
<g id="edge24" class="edge">
<title>start async runner 1&#45;&gt;all async runners started</title>
<path fill="none" stroke="#000000" d="M470.0274,-1295.8314C470.0274,-1288.131 470.0274,-1278.9743 470.0274,-1270.4166"/>
<polygon fill="#000000" stroke="#000000" points="473.5275,-1270.4132 470.0274,-1260.4133 466.5275,-1270.4133 473.5275,-1270.4132"/>
</g>
<!-- start async runner 2&#45;&gt;all async runners started -->
<g id="edge25" class="edge">
<title>start async runner 2&#45;&gt;all async runners started</title>
<path fill="none" stroke="#000000" d="M577.6901,-1295.8314C558.6878,-1286.3302 535.2516,-1274.6121 515.1022,-1264.5374"/>
<polygon fill="#000000" stroke="#000000" points="516.6129,-1261.3797 506.1034,-1260.038 513.4824,-1267.6407 516.6129,-1261.3797"/>
</g>
<!-- init services -->
<g id="node22" class="node">
<title>init services</title>
<path fill="#7fff00" stroke="#000000" d="M499.7838,-1188C499.7838,-1188 440.271,-1188 440.271,-1188 434.271,-1188 428.271,-1182 428.271,-1176 428.271,-1176 428.271,-1164 428.271,-1164 428.271,-1158 434.271,-1152 440.271,-1152 440.271,-1152 499.7838,-1152 499.7838,-1152 505.7838,-1152 511.7838,-1158 511.7838,-1164 511.7838,-1164 511.7838,-1176 511.7838,-1176 511.7838,-1182 505.7838,-1188 499.7838,-1188"/>
<text text-anchor="middle" x="470.0274" y="-1165.8" font-family="Times,serif" font-size="14.00" fill="#000000">init services</text>
</g>
<!-- all async runners started&#45;&gt;init services -->
<g id="edge26" class="edge">
<title>all async runners started&#45;&gt;init services</title>
<path fill="none" stroke="#000000" d="M470.0274,-1223.8314C470.0274,-1216.131 470.0274,-1206.9743 470.0274,-1198.4166"/>
<polygon fill="#000000" stroke="#000000" points="473.5275,-1198.4132 470.0274,-1188.4133 466.5275,-1198.4133 473.5275,-1198.4132"/>
</g>
<!-- booting providers -->
<g id="node23" class="node">
<title>booting providers</title>
<path fill="#7fff00" stroke="#000000" d="M515.6797,-1116C515.6797,-1116 424.3751,-1116 424.3751,-1116 418.3751,-1116 412.3751,-1110 412.3751,-1104 412.3751,-1104 412.3751,-1092 412.3751,-1092 412.3751,-1086 418.3751,-1080 424.3751,-1080 424.3751,-1080 515.6797,-1080 515.6797,-1080 521.6797,-1080 527.6797,-1086 527.6797,-1092 527.6797,-1092 527.6797,-1104 527.6797,-1104 527.6797,-1110 521.6797,-1116 515.6797,-1116"/>
<text text-anchor="middle" x="470.0274" y="-1093.8" font-family="Times,serif" font-size="14.00" fill="#000000">booting providers</text>
</g>
<!-- init services&#45;&gt;booting providers -->
<g id="edge27" class="edge">
<title>init services&#45;&gt;booting providers</title>
<path fill="none" stroke="#000000" d="M470.0274,-1151.8314C470.0274,-1144.131 470.0274,-1134.9743 470.0274,-1126.4166"/>
<polygon fill="#000000" stroke="#000000" points="473.5275,-1126.4132 470.0274,-1116.4133 466.5275,-1126.4133 473.5275,-1126.4132"/>
</g>
<!-- booting provider: .:*scheduler.provider -->
<g id="node24" class="node">
<title>booting provider: .:*scheduler.provider</title>
<path fill="#ffd700" stroke="#000000" d="M224.0822,-1044C224.0822,-1044 11.9726,-1044 11.9726,-1044 5.9726,-1044 -.0274,-1038 -.0274,-1032 -.0274,-1032 -.0274,-1020 -.0274,-1020 -.0274,-1014 5.9726,-1008 11.9726,-1008 11.9726,-1008 224.0822,-1008 224.0822,-1008 230.0822,-1008 236.0822,-1014 236.0822,-1020 236.0822,-1020 236.0822,-1032 236.0822,-1032 236.0822,-1038 230.0822,-1044 224.0822,-1044"/>
<text text-anchor="middle" x="118.0274" y="-1021.8" font-family="Times,serif" font-size="14.00" fill="#000000">booting provider: .:*scheduler.provider</text>
</g>
<!-- booting providers&#45;&gt;booting provider: .:*scheduler.provider -->
<g id="edge28" class="edge">
<title>booting providers&#45;&gt;booting provider: .:*scheduler.provider</title>
<path fill="none" stroke="#000000" d="M412.2959,-1086.1913C359.1615,-1075.3229 279.2602,-1058.9794 216.1192,-1046.0642"/>
<polygon fill="#000000" stroke="#000000" points="216.6346,-1042.5973 206.136,-1044.0222 215.2318,-1049.4553 216.6346,-1042.5973"/>
</g>
<!-- booting provider: .:*web.provider -->
<g id="node25" class="node">
<title>booting provider: .:*web.provider</title>
<path fill="#ffd700" stroke="#000000" d="M447.764,-1044C447.764,-1044 266.2908,-1044 266.2908,-1044 260.2908,-1044 254.2908,-1038 254.2908,-1032 254.2908,-1032 254.2908,-1020 254.2908,-1020 254.2908,-1014 260.2908,-1008 266.2908,-1008 266.2908,-1008 447.764,-1008 447.764,-1008 453.764,-1008 459.764,-1014 459.764,-1020 459.764,-1020 459.764,-1032 459.764,-1032 459.764,-1038 453.764,-1044 447.764,-1044"/>
<text text-anchor="middle" x="357.0274" y="-1021.8" font-family="Times,serif" font-size="14.00" fill="#000000">booting provider: .:*web.provider</text>
</g>
<!-- booting providers&#45;&gt;booting provider: .:*web.provider -->
<g id="edge29" class="edge">
<title>booting providers&#45;&gt;booting provider: .:*web.provider</title>
<path fill="none" stroke="#000000" d="M441.5127,-1079.8314C427.1932,-1070.7074 409.665,-1059.539 394.2936,-1049.7449"/>
<polygon fill="#000000" stroke="#000000" points="395.8473,-1046.5847 385.5329,-1044.1628 392.0857,-1052.4882 395.8473,-1046.5847"/>
</g>
<!-- booting provider: .:*event.provider -->
<g id="node26" class="node">
<title>booting provider: .:*event.provider</title>
<path fill="#ffd700" stroke="#000000" d="M678.2626,-1044C678.2626,-1044 489.7922,-1044 489.7922,-1044 483.7922,-1044 477.7922,-1038 477.7922,-1032 477.7922,-1032 477.7922,-1020 477.7922,-1020 477.7922,-1014 483.7922,-1008 489.7922,-1008 489.7922,-1008 678.2626,-1008 678.2626,-1008 684.2626,-1008 690.2626,-1014 690.2626,-1020 690.2626,-1020 690.2626,-1032 690.2626,-1032 690.2626,-1038 684.2626,-1044 678.2626,-1044"/>
<text text-anchor="middle" x="584.0274" y="-1021.8" font-family="Times,serif" font-size="14.00" fill="#000000">booting provider: .:*event.provider</text>
</g>
<!-- booting providers&#45;&gt;booting provider: .:*event.provider -->
<g id="edge30" class="edge">
<title>booting providers&#45;&gt;booting provider: .:*event.provider</title>
<path fill="none" stroke="#000000" d="M498.7944,-1079.8314C513.2407,-1070.7074 530.9239,-1059.539 546.4314,-1049.7449"/>
<polygon fill="#000000" stroke="#000000" points="548.6837,-1052.462 555.2696,-1044.1628 544.9457,-1046.5436 548.6837,-1052.462"/>
</g>
<!-- booting provider: github.com/mylxsw/glacier/example/job:job.ServiceProvider -->
<g id="node27" class="node">
<title>booting provider: github.com/mylxsw/glacier/example/job:job.ServiceProvider</title>
<path fill="#ffd700" stroke="#000000" d="M1155.7759,-1044C1155.7759,-1044 720.2789,-1044 720.2789,-1044 714.2789,-1044 708.2789,-1038 708.2789,-1032 708.2789,-1032 708.2789,-1020 708.2789,-1020 708.2789,-1014 714.2789,-1008 720.2789,-1008 720.2789,-1008 1155.7759,-1008 1155.7759,-1008 1161.7759,-1008 1167.7759,-1014 1167.7759,-1020 1167.7759,-1020 1167.7759,-1032 1167.7759,-1032 1167.7759,-1038 1161.7759,-1044 1155.7759,-1044"/>
<text text-anchor="middle" x="938.0274" y="-1021.8" font-family="Times,serif" font-size="14.00" fill="#000000">booting provider: github.com/mylxsw/glacier/example/job:job.ServiceProvider</text>
</g>
<!-- booting providers&#45;&gt;booting provider: github.com/mylxsw/glacier/example/job:job.ServiceProvider -->
<g id="edge31" class="edge">
<title>booting providers&#45;&gt;booting provider: github.com/mylxsw/glacier/example/job:job.ServiceProvider</title>
<path fill="none" stroke="#000000" d="M527.8828,-1089.0992C598.081,-1078.2994 718.4787,-1059.7767 810.726,-1045.5848"/>
<polygon fill="#000000" stroke="#000000" points="811.3424,-1049.0313 820.6939,-1044.0513 810.2779,-1042.1127 811.3424,-1049.0313"/>
</g>
<!-- all providers booted -->
<g id="node28" class="node">
<title>all providers booted</title>
<path fill="#ffd700" stroke="#000000" d="M521.9994,-972C521.9994,-972 418.0554,-972 418.0554,-972 412.0554,-972 406.0554,-966 406.0554,-960 406.0554,-960 406.0554,-948 406.0554,-948 406.0554,-942 412.0554,-936 418.0554,-936 418.0554,-936 521.9994,-936 521.9994,-936 527.9994,-936 533.9994,-942 533.9994,-948 533.9994,-948 533.9994,-960 533.9994,-960 533.9994,-966 527.9994,-972 521.9994,-972"/>
<text text-anchor="middle" x="470.0274" y="-949.8" font-family="Times,serif" font-size="14.00" fill="#000000">all providers booted</text>
</g>
<!-- booting provider: .:*scheduler.provider&#45;&gt;all providers booted -->
<g id="edge32" class="edge">
<title>booting provider: .:*scheduler.provider&#45;&gt;all providers booted</title>
<path fill="none" stroke="#000000" d="M206.3975,-1007.9243C264.8715,-995.9637 340.6716,-980.4591 395.975,-969.1471"/>
<polygon fill="#000000" stroke="#000000" points="396.9583,-972.5185 406.0541,-967.0855 395.5555,-965.6605 396.9583,-972.5185"/>
</g>
<!-- booting provider: .:*web.provider&#45;&gt;all providers booted -->
<g id="edge33" class="edge">
<title>booting provider: .:*web.provider&#45;&gt;all providers booted</title>
<path fill="none" stroke="#000000" d="M385.5421,-1007.8314C399.8616,-998.7074 417.3898,-987.539 432.7612,-977.7449"/>
<polygon fill="#000000" stroke="#000000" points="434.9691,-980.4882 441.5219,-972.1628 431.2075,-974.5847 434.9691,-980.4882"/>
</g>
<!-- booting provider: .:*event.provider&#45;&gt;all providers booted -->
<g id="edge34" class="edge">
<title>booting provider: .:*event.provider&#45;&gt;all providers booted</title>
<path fill="none" stroke="#000000" d="M555.2604,-1007.8314C540.8141,-998.7074 523.1309,-987.539 507.6234,-977.7449"/>
<polygon fill="#000000" stroke="#000000" points="509.1091,-974.5436 498.7852,-972.1628 505.3711,-980.462 509.1091,-974.5436"/>
</g>
<!-- booting provider: github.com/mylxsw/glacier/example/job:job.ServiceProvider&#45;&gt;all providers booted -->
<g id="edge35" class="edge">
<title>booting provider: github.com/mylxsw/glacier/example/job:job.ServiceProvider&#45;&gt;all providers booted</title>
<path fill="none" stroke="#000000" d="M820.837,-1007.9707C734.2098,-994.6434 618.8569,-976.8968 544.5084,-965.4586"/>
<polygon fill="#000000" stroke="#000000" points="544.7128,-961.949 534.2969,-963.8876 543.6483,-968.8676 544.7128,-961.949"/>
</g>
<!-- start daemon providers -->
<g id="node29" class="node">
<title>start daemon providers</title>
<path fill="#7fff00" stroke="#000000" d="M530.3195,-900C530.3195,-900 409.7353,-900 409.7353,-900 403.7353,-900 397.7353,-894 397.7353,-888 397.7353,-888 397.7353,-876 397.7353,-876 397.7353,-870 403.7353,-864 409.7353,-864 409.7353,-864 530.3195,-864 530.3195,-864 536.3195,-864 542.3195,-870 542.3195,-876 542.3195,-876 542.3195,-888 542.3195,-888 542.3195,-894 536.3195,-900 530.3195,-900"/>
<text text-anchor="middle" x="470.0274" y="-877.8" font-family="Times,serif" font-size="14.00" fill="#000000">start daemon providers</text>
</g>
<!-- all providers booted&#45;&gt;start daemon providers -->
<g id="edge36" class="edge">
<title>all providers booted&#45;&gt;start daemon providers</title>
<path fill="none" stroke="#000000" d="M470.0274,-935.8314C470.0274,-928.131 470.0274,-918.9743 470.0274,-910.4166"/>
<polygon fill="#000000" stroke="#000000" points="473.5275,-910.4132 470.0274,-900.4133 466.5275,-910.4133 473.5275,-910.4132"/>
</g>
<!-- start daemon provider: .:*scheduler.provider -->
<g id="node30" class="node">
<title>start daemon provider: .:*scheduler.provider</title>
<path fill="#ffd700" stroke="#000000" d="M322.7219,-828C322.7219,-828 81.3329,-828 81.3329,-828 75.3329,-828 69.3329,-822 69.3329,-816 69.3329,-816 69.3329,-804 69.3329,-804 69.3329,-798 75.3329,-792 81.3329,-792 81.3329,-792 322.7219,-792 322.7219,-792 328.7219,-792 334.7219,-798 334.7219,-804 334.7219,-804 334.7219,-816 334.7219,-816 334.7219,-822 328.7219,-828 322.7219,-828"/>
<text text-anchor="middle" x="202.0274" y="-805.8" font-family="Times,serif" font-size="14.00" fill="#000000">start daemon provider: .:*scheduler.provider</text>
</g>
<!-- start daemon providers&#45;&gt;start daemon provider: .:*scheduler.provider -->
<g id="edge37" class="edge">
<title>start daemon providers&#45;&gt;start daemon provider: .:*scheduler.provider</title>
<path fill="none" stroke="#000000" d="M402.7456,-863.9243C365.1527,-853.8247 318.1541,-841.1982 279.0876,-830.7027"/>
<polygon fill="#000000" stroke="#000000" points="279.9025,-827.2976 269.3369,-828.0831 278.0863,-834.0579 279.9025,-827.2976"/>
</g>
<!-- start daemon provider: .:*web.provider -->
<g id="node31" class="node">
<title>start daemon provider: .:*web.provider</title>
<path fill="#ffd700" stroke="#000000" d="M575.4034,-828C575.4034,-828 364.6514,-828 364.6514,-828 358.6514,-828 352.6514,-822 352.6514,-816 352.6514,-816 352.6514,-804 352.6514,-804 352.6514,-798 358.6514,-792 364.6514,-792 364.6514,-792 575.4034,-792 575.4034,-792 581.4034,-792 587.4034,-798 587.4034,-804 587.4034,-804 587.4034,-816 587.4034,-816 587.4034,-822 581.4034,-828 575.4034,-828"/>
<text text-anchor="middle" x="470.0274" y="-805.8" font-family="Times,serif" font-size="14.00" fill="#000000">start daemon provider: .:*web.provider</text>
</g>
<!-- start daemon providers&#45;&gt;start daemon provider: .:*web.provider -->
<g id="edge38" class="edge">
<title>start daemon providers&#45;&gt;start daemon provider: .:*web.provider</title>
<path fill="none" stroke="#000000" d="M470.0274,-863.8314C470.0274,-856.131 470.0274,-846.9743 470.0274,-838.4166"/>
<polygon fill="#000000" stroke="#000000" points="473.5275,-838.4132 470.0274,-828.4133 466.5275,-838.4133 473.5275,-838.4132"/>
</g>
<!-- start daemon provider: .:*event.provider -->
<g id="node32" class="node">
<title>start daemon provider: .:*event.provider</title>
<path fill="#ffd700" stroke="#000000" d="M834.902,-828C834.902,-828 617.1528,-828 617.1528,-828 611.1528,-828 605.1528,-822 605.1528,-816 605.1528,-816 605.1528,-804 605.1528,-804 605.1528,-798 611.1528,-792 617.1528,-792 617.1528,-792 834.902,-792 834.902,-792 840.902,-792 846.902,-798 846.902,-804 846.902,-804 846.902,-816 846.902,-816 846.902,-822 840.902,-828 834.902,-828"/>
<text text-anchor="middle" x="726.0274" y="-805.8" font-family="Times,serif" font-size="14.00" fill="#000000">start daemon provider: .:*event.provider</text>
</g>
<!-- start daemon providers&#45;&gt;start daemon provider: .:*event.provider -->
<g id="edge39" class="edge">
<title>start daemon providers&#45;&gt;start daemon provider: .:*event.provider</title>
<path fill="none" stroke="#000000" d="M534.2966,-863.9243C570.0541,-853.8675 614.7201,-841.3052 651.9429,-830.8363"/>
<polygon fill="#000000" stroke="#000000" points="653.0529,-834.1599 661.7318,-828.0831 651.1576,-827.4214 653.0529,-834.1599"/>
</g>
<!-- all daemon providers started -->
<g id="node33" class="node">
<title>all daemon providers started</title>
<path fill="#ffd700" stroke="#000000" d="M545.5296,-756C545.5296,-756 394.5252,-756 394.5252,-756 388.5252,-756 382.5252,-750 382.5252,-744 382.5252,-744 382.5252,-732 382.5252,-732 382.5252,-726 388.5252,-720 394.5252,-720 394.5252,-720 545.5296,-720 545.5296,-720 551.5296,-720 557.5296,-726 557.5296,-732 557.5296,-732 557.5296,-744 557.5296,-744 557.5296,-750 551.5296,-756 545.5296,-756"/>
<text text-anchor="middle" x="470.0274" y="-733.8" font-family="Times,serif" font-size="14.00" fill="#000000">all daemon providers started</text>
</g>
<!-- start daemon provider: .:*scheduler.provider&#45;&gt;all daemon providers started -->
<g id="edge40" class="edge">
<title>start daemon provider: .:*scheduler.provider&#45;&gt;all daemon providers started</title>
<path fill="none" stroke="#000000" d="M269.3092,-791.9243C306.9021,-781.8247 353.9007,-769.1982 392.9672,-758.7027"/>
<polygon fill="#000000" stroke="#000000" points="393.9685,-762.0579 402.7179,-756.0831 392.1523,-755.2976 393.9685,-762.0579"/>
</g>
<!-- start daemon provider: .:*web.provider&#45;&gt;all daemon providers started -->
<g id="edge41" class="edge">
<title>start daemon provider: .:*web.provider&#45;&gt;all daemon providers started</title>
<path fill="none" stroke="#000000" d="M470.0274,-791.8314C470.0274,-784.131 470.0274,-774.9743 470.0274,-766.4166"/>
<polygon fill="#000000" stroke="#000000" points="473.5275,-766.4132 470.0274,-756.4133 466.5275,-766.4133 473.5275,-766.4132"/>
</g>
<!-- start daemon provider: .:*event.provider&#45;&gt;all daemon providers started -->
<g id="edge42" class="edge">
<title>start daemon provider: .:*event.provider&#45;&gt;all daemon providers started</title>
<path fill="none" stroke="#000000" d="M661.7582,-791.9243C626.0007,-781.8675 581.3347,-769.3052 544.1119,-758.8363"/>
<polygon fill="#000000" stroke="#000000" points="544.8972,-755.4214 534.323,-756.0831 543.0019,-762.1599 544.8972,-755.4214"/>
</g>
<!-- start services -->
<g id="node34" class="node">
<title>start services</title>
<path fill="#7fff00" stroke="#000000" d="M502.2132,-684C502.2132,-684 437.8416,-684 437.8416,-684 431.8416,-684 425.8416,-678 425.8416,-672 425.8416,-672 425.8416,-660 425.8416,-660 425.8416,-654 431.8416,-648 437.8416,-648 437.8416,-648 502.2132,-648 502.2132,-648 508.2132,-648 514.2132,-654 514.2132,-660 514.2132,-660 514.2132,-672 514.2132,-672 514.2132,-678 508.2132,-684 502.2132,-684"/>
<text text-anchor="middle" x="470.0274" y="-661.8" font-family="Times,serif" font-size="14.00" fill="#000000">start services</text>
</g>
<!-- all daemon providers started&#45;&gt;start services -->
<g id="edge43" class="edge">
<title>all daemon providers started&#45;&gt;start services</title>
<path fill="none" stroke="#000000" d="M470.0274,-719.8314C470.0274,-712.131 470.0274,-702.9743 470.0274,-694.4166"/>
<polygon fill="#000000" stroke="#000000" points="473.5275,-694.4132 470.0274,-684.4133 466.5275,-694.4133 473.5275,-694.4132"/>
</g>
<!-- start service .:*service.Demo2Service -->
<g id="node35" class="node">
<title>start service .:*service.Demo2Service</title>
<path fill="#ffd700" stroke="#000000" d="M571.9881,-612C571.9881,-612 368.0667,-612 368.0667,-612 362.0667,-612 356.0667,-606 356.0667,-600 356.0667,-600 356.0667,-588 356.0667,-588 356.0667,-582 362.0667,-576 368.0667,-576 368.0667,-576 571.9881,-576 571.9881,-576 577.9881,-576 583.9881,-582 583.9881,-588 583.9881,-588 583.9881,-600 583.9881,-600 583.9881,-606 577.9881,-612 571.9881,-612"/>
<text text-anchor="middle" x="470.0274" y="-589.8" font-family="Times,serif" font-size="14.00" fill="#000000">start service .:*service.Demo2Service</text>
</g>
<!-- start services&#45;&gt;start service .:*service.Demo2Service -->
<g id="edge44" class="edge">
<title>start services&#45;&gt;start service .:*service.Demo2Service</title>
<path fill="none" stroke="#000000" d="M470.0274,-647.8314C470.0274,-640.131 470.0274,-630.9743 470.0274,-622.4166"/>
<polygon fill="#000000" stroke="#000000" points="473.5275,-622.4132 470.0274,-612.4133 466.5275,-622.4133 473.5275,-622.4132"/>
</g>
<!-- update framework status to Started -->
<g id="node36" class="node">
<title>update framework status to Started</title>
<path fill="#ffd700" stroke="#000000" d="M563.6847,-540C563.6847,-540 376.3701,-540 376.3701,-540 370.3701,-540 364.3701,-534 364.3701,-528 364.3701,-528 364.3701,-516 364.3701,-516 364.3701,-510 370.3701,-504 376.3701,-504 376.3701,-504 563.6847,-504 563.6847,-504 569.6847,-504 575.6847,-510 575.6847,-516 575.6847,-516 575.6847,-528 575.6847,-528 575.6847,-534 569.6847,-540 563.6847,-540"/>
<text text-anchor="middle" x="470.0274" y="-517.8" font-family="Times,serif" font-size="14.00" fill="#000000">update framework status to Started</text>
</g>
<!-- start service .:*service.Demo2Service&#45;&gt;update framework status to Started -->
<g id="edge45" class="edge">
<title>start service .:*service.Demo2Service&#45;&gt;update framework status to Started</title>
<path fill="none" stroke="#000000" d="M470.0274,-575.8314C470.0274,-568.131 470.0274,-558.9743 470.0274,-550.4166"/>
<polygon fill="#000000" stroke="#000000" points="473.5275,-550.4132 470.0274,-540.4133 466.5275,-550.4133 473.5275,-550.4132"/>
</g>
<!-- invoke onServerReady hooks -->
<g id="node37" class="node">
<title>invoke onServerReady hooks</title>
<path fill="#00ced1" stroke="#000000" d="M548.3761,-468C548.3761,-468 391.6787,-468 391.6787,-468 385.6787,-468 379.6787,-462 379.6787,-456 379.6787,-456 379.6787,-444 379.6787,-444 379.6787,-438 385.6787,-432 391.6787,-432 391.6787,-432 548.3761,-432 548.3761,-432 554.3761,-432 560.3761,-438 560.3761,-444 560.3761,-444 560.3761,-456 560.3761,-456 560.3761,-462 554.3761,-468 548.3761,-468"/>
<text text-anchor="middle" x="470.0274" y="-445.8" font-family="Times,serif" font-size="14.00" fill="#000000">invoke onServerReady hooks</text>
</g>
<!-- update framework status to Started&#45;&gt;invoke onServerReady hooks -->
<g id="edge46" class="edge">
<title>update framework status to Started&#45;&gt;invoke onServerReady hooks</title>
<path fill="none" stroke="#000000" d="M470.0274,-503.8314C470.0274,-496.131 470.0274,-486.9743 470.0274,-478.4166"/>
<polygon fill="#000000" stroke="#000000" points="473.5275,-478.4132 470.0274,-468.4133 466.5275,-478.4133 473.5275,-478.4132"/>
</g>
<!-- invoke onServerReady hook: .:func(infra.Resolver) error -->
<g id="node38" class="node">
<title>invoke onServerReady hook: .:func(infra.Resolver) error</title>
<path fill="#ffd700" stroke="#000000" d="M625.2935,-396C625.2935,-396 314.7613,-396 314.7613,-396 308.7613,-396 302.7613,-390 302.7613,-384 302.7613,-384 302.7613,-372 302.7613,-372 302.7613,-366 308.7613,-360 314.7613,-360 314.7613,-360 625.2935,-360 625.2935,-360 631.2935,-360 637.2935,-366 637.2935,-372 637.2935,-372 637.2935,-384 637.2935,-384 637.2935,-390 631.2935,-396 625.2935,-396"/>
<text text-anchor="middle" x="470.0274" y="-373.8" font-family="Times,serif" font-size="14.00" fill="#000000">invoke onServerReady hook: .:func(infra.Resolver) error</text>
</g>
<!-- invoke onServerReady hooks&#45;&gt;invoke onServerReady hook: .:func(infra.Resolver) error -->
<g id="edge47" class="edge">
<title>invoke onServerReady hooks&#45;&gt;invoke onServerReady hook: .:func(infra.Resolver) error</title>
<path fill="none" stroke="#000000" d="M470.0274,-431.8314C470.0274,-424.131 470.0274,-414.9743 470.0274,-406.4166"/>
<polygon fill="#000000" stroke="#000000" points="473.5275,-406.4132 470.0274,-396.4133 466.5275,-406.4133 473.5275,-406.4132"/>
</g>
<!-- launched -->
<g id="node39" class="node">
<title>launched</title>
<path fill="#ffd700" stroke="#000000" d="M491.0634,-324C491.0634,-324 448.9914,-324 448.9914,-324 442.9914,-324 436.9914,-318 436.9914,-312 436.9914,-312 436.9914,-300 436.9914,-300 436.9914,-294 442.9914,-288 448.9914,-288 448.9914,-288 491.0634,-288 491.0634,-288 497.0634,-288 503.0634,-294 503.0634,-300 503.0634,-300 503.0634,-312 503.0634,-312 503.0634,-318 497.0634,-324 491.0634,-324"/>
<text text-anchor="middle" x="470.0274" y="-301.8" font-family="Times,serif" font-size="14.00" fill="#000000">launched</text>
</g>
<!-- invoke onServerReady hook: .:func(infra.Resolver) error&#45;&gt;launched -->
<g id="edge48" class="edge">
<title>invoke onServerReady hook: .:func(infra.Resolver) error&#45;&gt;launched</title>
<path fill="none" stroke="#000000" d="M470.0274,-359.8314C470.0274,-352.131 470.0274,-342.9743 470.0274,-334.4166"/>
<polygon fill="#000000" stroke="#000000" points="473.5275,-334.4132 470.0274,-324.4133 466.5275,-334.4133 473.5275,-334.4132"/>
</g>
<!-- invoke beforeServerStop hook -->
<g id="node40" class="node">
<title>invoke beforeServerStop hook</title>
<path fill="#00ced1" stroke="#000000" d="M551.5892,-252C551.5892,-252 388.4656,-252 388.4656,-252 382.4656,-252 376.4656,-246 376.4656,-240 376.4656,-240 376.4656,-228 376.4656,-228 376.4656,-222 382.4656,-216 388.4656,-216 388.4656,-216 551.5892,-216 551.5892,-216 557.5892,-216 563.5892,-222 563.5892,-228 563.5892,-228 563.5892,-240 563.5892,-240 563.5892,-246 557.5892,-252 551.5892,-252"/>
<text text-anchor="middle" x="470.0274" y="-229.8" font-family="Times,serif" font-size="14.00" fill="#000000">invoke beforeServerStop hook</text>
</g>
<!-- launched&#45;&gt;invoke beforeServerStop hook -->
<g id="edge49" class="edge">
<title>launched&#45;&gt;invoke beforeServerStop hook</title>
<path fill="none" stroke="#000000" d="M470.0274,-287.8314C470.0274,-280.131 470.0274,-270.9743 470.0274,-262.4166"/>
<polygon fill="#000000" stroke="#000000" points="473.5275,-262.4132 470.0274,-252.4133 466.5275,-262.4133 473.5275,-262.4132"/>
</g>
<!-- all async runners stopped -->
<g id="node41" class="node">
<title>all async runners stopped</title>
<path fill="#ffd700" stroke="#000000" d="M536.9272,-180C536.9272,-180 403.1276,-180 403.1276,-180 397.1276,-180 391.1276,-174 391.1276,-168 391.1276,-168 391.1276,-156 391.1276,-156 391.1276,-150 397.1276,-144 403.1276,-144 403.1276,-144 536.9272,-144 536.9272,-144 542.9272,-144 548.9272,-150 548.9272,-156 548.9272,-156 548.9272,-168 548.9272,-168 548.9272,-174 542.9272,-180 536.9272,-180"/>
<text text-anchor="middle" x="470.0274" y="-157.8" font-family="Times,serif" font-size="14.00" fill="#000000">all async runners stopped</text>
</g>
<!-- invoke beforeServerStop hook&#45;&gt;all async runners stopped -->
<g id="edge50" class="edge">
<title>invoke beforeServerStop hook&#45;&gt;all async runners stopped</title>
<path fill="none" stroke="#000000" d="M470.0274,-215.8314C470.0274,-208.131 470.0274,-198.9743 470.0274,-190.4166"/>
<polygon fill="#000000" stroke="#000000" points="473.5275,-190.4132 470.0274,-180.4133 466.5275,-190.4133 473.5275,-190.4132"/>
</g>
<!-- cancel framework context -->
<g id="node42" class="node">
<title>cancel framework context</title>
<path fill="#ffd700" stroke="#000000" d="M538.8954,-108C538.8954,-108 401.1594,-108 401.1594,-108 395.1594,-108 389.1594,-102 389.1594,-96 389.1594,-96 389.1594,-84 389.1594,-84 389.1594,-78 395.1594,-72 401.1594,-72 401.1594,-72 538.8954,-72 538.8954,-72 544.8954,-72 550.8954,-78 550.8954,-84 550.8954,-84 550.8954,-96 550.8954,-96 550.8954,-102 544.8954,-108 538.8954,-108"/>
<text text-anchor="middle" x="470.0274" y="-85.8" font-family="Times,serif" font-size="14.00" fill="#000000">cancel framework context</text>
</g>
<!-- all async runners stopped&#45;&gt;cancel framework context -->
<g id="edge51" class="edge">
<title>all async runners stopped&#45;&gt;cancel framework context</title>
<path fill="none" stroke="#000000" d="M470.0274,-143.8314C470.0274,-136.131 470.0274,-126.9743 470.0274,-118.4166"/>
<polygon fill="#000000" stroke="#000000" points="473.5275,-118.4132 470.0274,-108.4133 466.5275,-118.4133 473.5275,-118.4132"/>
</g>
<!-- shutdown -->
<g id="node43" class="node">
<title>shutdown</title>
<path fill="#ffd700" stroke="#000000" d="M493.4706,-36C493.4706,-36 446.5842,-36 446.5842,-36 440.5842,-36 434.5842,-30 434.5842,-24 434.5842,-24 434.5842,-12 434.5842,-12 434.5842,-6 440.5842,0 446.5842,0 446.5842,0 493.4706,0 493.4706,0 499.4706,0 505.4706,-6 505.4706,-12 505.4706,-12 505.4706,-24 505.4706,-24 505.4706,-30 499.4706,-36 493.4706,-36"/>
<text text-anchor="middle" x="470.0274" y="-13.8" font-family="Times,serif" font-size="14.00" fill="#000000">shutdown</text>
</g>
<!-- cancel framework context&#45;&gt;shutdown -->
<g id="edge52" class="edge">
<title>cancel framework context&#45;&gt;shutdown</title>
<path fill="none" stroke="#000000" d="M470.0274,-71.8314C470.0274,-64.131 470.0274,-54.9743 470.0274,-46.4166"/>
<polygon fill="#000000" stroke="#000000" points="473.5275,-46.4132 470.0274,-36.4133 466.5275,-46.4133 473.5275,-46.4132"/>
</g>
</g>
</svg>