<?xml version="1.0" encoding="UTF-8" standalone="no"?>
<!DOCTYPE svg PUBLIC "-//W3C//DTD SVG 1.1//EN"
 "http://www.w3.org/Graphics/SVG/1.1/DTD/svg11.dtd">
<!-- Generated by graphviz version 2.40.1 (20161225.0304)
 -->
<!-- Title: G Pages: 1 -->
<svg width="1208pt" height="2404pt"
 viewBox="0.00 0.00 1208.00 2404.00" xmlns="http://www.w3.org/2000/svg" xmlns:xlink="http://www.w3.org/1999/xlink">
<g id="graph0" class="graph" transform="scale(1 1) rotate(0) translate(4 2400)">
<title>G</title>
<polygon fill="#ffffff" stroke="transparent" points="-4,4 -4,-2400 1204,-2400 1204,4 -4,4"/>
<g id="clust2" class="cluster">
<title>cluster_initStage</title>
<path fill="#f0f8ff" stroke="#00bfff" stroke-dasharray="5,2" d="M434,-2203.2C434,-2203.2 534,-2203.2 534,-2203.2 540,-2203.2 546,-2209.2 546,-2215.2 546,-2215.2 546,-2340 546,-2340 546,-2346 540,-2352 534,-2352 534,-2352 434,-2352 434,-2352 428,-2352 422,-2346 422,-2340 422,-2340 422,-2215.2 422,-2215.2 422,-2209.2 428,-2203.2 434,-2203.2"/>
<text text-anchor="middle" x="484" y="-2335.4" font-family="Times,serif" font-size="14.00" fill="#000000">initStage</text>
</g>
<g id="clust3" class="cluster">
<title>cluster_diBindStage</title>
<path fill="#f0f8ff" stroke="#00bfff" stroke-dasharray="5,2" d="M404,-1902.4C404,-1902.4 564,-1902.4 564,-1902.4 570,-1902.4 576,-1908.4 576,-1914.4 576,-1914.4 576,-2183.2 576,-2183.2 576,-2189.2 570,-2195.2 564,-2195.2 564,-2195.2 404,-2195.2 404,-2195.2 398,-2195.2 392,-2189.2 392,-2183.2 392,-2183.2 392,-1914.4 392,-1914.4 392,-1908.4 398,-1902.4 404,-1902.4"/>
<text text-anchor="middle" x="484" y="-2178.6" font-family="Times,serif" font-size="14.00" fill="#000000">diBindStage</text>
</g>
<g id="clust4" class="cluster">
<title>cluster_bootStage</title>
<path fill="#f0f8ff" stroke="#00bfff" stroke-dasharray="5,2" d="M20,-529.6C20,-529.6 1180,-529.6 1180,-529.6 1186,-529.6 1192,-535.6 1192,-541.6 1192,-541.6 1192,-1818.4 1192,-1818.4 1192,-1824.4 1186,-1830.4 1180,-1830.4 1180,-1830.4 20,-1830.4 20,-1830.4 14,-1830.4 8,-1824.4 8,-1818.4 8,-1818.4 8,-541.6 8,-541.6 8,-535.6 14,-529.6 20,-529.6"/>
<text text-anchor="middle" x="600" y="-1813.8" font-family="Times,serif" font-size="14.00" fill="#000000">bootStage</text>
</g>
<g id="clust5" class="cluster">
<title>cluster_readyStage</title>
<path fill="#f0f8ff" stroke="#00bfff" stroke-dasharray="5,2" d="M345,-236.8C345,-236.8 671,-236.8 671,-236.8 677,-236.8 683,-242.8 683,-248.8 683,-248.8 683,-445.6 683,-445.6 683,-451.6 677,-457.6 671,-457.6 671,-457.6 345,-457.6 345,-457.6 339,-457.6 333,-451.6 333,-445.6 333,-445.6 333,-248.8 333,-248.8 333,-242.8 339,-236.8 345,-236.8"/>
<text text-anchor="middle" x="508" y="-441" font-family="Times,serif" font-size="14.00" fill="#000000">readyStage</text>
</g>
<g id="clust6" class="cluster">
<title>cluster_shutdownStage</title>
<path fill="#f0f8ff" stroke="#00bfff" stroke-dasharray="5,2" d="M418,-8C418,-8 598,-8 598,-8 604,-8 610,-14 610,-20 610,-20 610,-216.8 610,-216.8 610,-222.8 604,-228.8 598,-228.8 598,-228.8 418,-228.8 418,-228.8 412,-228.8 406,-222.8 406,-216.8 406,-216.8 406,-20 406,-20 406,-14 412,-8 418,-8"/>
<text text-anchor="middle" x="508" y="-212.2" font-family="Times,serif" font-size="14.00" fill="#000000">shutdownStage</text>
</g>
<!-- invoke init hook -->
<g id="node1" class="node">
<title>invoke init hook</title>
<path fill="#00ced1" stroke="#000000" d="M525.7772,-2319.2C525.7772,-2319.2 442.2228,-2319.2 442.2228,-2319.2 436.2228,-2319.2 430.2228,-2313.2 430.2228,-2307.2 430.2228,-2307.2 430.2228,-2295.2 430.2228,-2295.2 430.2228,-2289.2 436.2228,-2283.2 442.2228,-2283.2 442.2228,-2283.2 525.7772,-2283.2 525.7772,-2283.2 531.7772,-2283.2 537.7772,-2289.2 537.7772,-2295.2 537.7772,-2295.2 537.7772,-2307.2 537.7772,-2307.2 537.7772,-2313.2 531.7772,-2319.2 525.7772,-2319.2"/>
<text text-anchor="middle" x="484" y="-2297" font-family="Times,serif" font-size="14.00" fill="#000000">invoke init hook</text>
</g>
<!-- init logger -->
<g id="node3" class="node">
<title>init logger</title>
<path fill="#ffd700" stroke="#000000" d="M508.9376,-2247.2C508.9376,-2247.2 459.0624,-2247.2 459.0624,-2247.2 453.0624,-2247.2 447.0624,-2241.2 447.0624,-2235.2 447.0624,-2235.2 447.0624,-2223.2 447.0624,-2223.2 447.0624,-2217.2 453.0624,-2211.2 459.0624,-2211.2 459.0624,-2211.2 508.9376,-2211.2 508.9376,-2211.2 514.9376,-2211.2 520.9376,-2217.2 520.9376,-2223.2 520.9376,-2223.2 520.9376,-2235.2 520.9376,-2235.2 520.9376,-2241.2 514.9376,-2247.2 508.9376,-2247.2"/>
<text text-anchor="middle" x="484" y="-2225" font-family="Times,serif" font-size="14.00" fill="#000000">init logger</text>
</g>
<!-- invoke init hook&#45;&gt;init logger -->
<g id="edge2" class="edge">
<title>invoke init hook&#45;&gt;init logger</title>
<path fill="none" stroke="#000000" d="M484,-2283.0314C484,-2275.331 484,-2266.1743 484,-2257.6166"/>
<polygon fill="#000000" stroke="#000000" points="487.5001,-2257.6132 484,-2247.6133 480.5001,-2257.6133 487.5001,-2257.6132"/>
</g>
<!-- start -->
<g id="node2" class="node">
<title>start</title>
<path fill="#ffd700" stroke="#000000" d="M499,-2396C499,-2396 469,-2396 469,-2396 463,-2396 457,-2390 457,-2384 457,-2384 457,-2372 457,-2372 457,-2366 463,-2360 469,-2360 469,-2360 499,-2360 499,-2360 505,-2360 511,-2366 511,-2372 511,-2372 511,-2384 511,-2384 511,-2390 505,-2396 499,-2396"/>
<text text-anchor="middle" x="484" y="-2373.8" font-family="Times,serif" font-size="14.00" fill="#000000">start</text>
</g>
<!-- start&#45;&gt;invoke init hook -->
<g id="edge1" class="edge">
<title>start&#45;&gt;invoke init hook</title>
<path fill="none" stroke="#000000" d="M484,-2359.7995C484,-2350.7132 484,-2339.5176 484,-2329.3549"/>
<polygon fill="#000000" stroke="#000000" points="487.5001,-2329.2698 484,-2319.2699 480.5001,-2329.2699 487.5001,-2329.2698"/>
</g>
<!-- create container -->
<g id="node4" class="node">
<title>create container</title>
<path fill="#ffd700" stroke="#000000" d="M524.4952,-2162.4C524.4952,-2162.4 443.5048,-2162.4 443.5048,-2162.4 437.5048,-2162.4 431.5048,-2156.4 431.5048,-2150.4 431.5048,-2150.4 431.5048,-2138.4 431.5048,-2138.4 431.5048,-2132.4 437.5048,-2126.4 443.5048,-2126.4 443.5048,-2126.4 524.4952,-2126.4 524.4952,-2126.4 530.4952,-2126.4 536.4952,-2132.4 536.4952,-2138.4 536.4952,-2138.4 536.4952,-2150.4 536.4952,-2150.4 536.4952,-2156.4 530.4952,-2162.4 524.4952,-2162.4"/>
<text text-anchor="middle" x="484" y="-2140.2" font-family="Times,serif" font-size="14.00" fill="#000000">create container</text>
</g>
<!-- init logger&#45;&gt;create container -->
<g id="edge3" class="edge">
<title>init logger&#45;&gt;create container</title>
<path fill="none" stroke="#000000" d="M484,-2210.7997C484,-2199.6112 484,-2185.0983 484,-2172.4954"/>
<polygon fill="#000000" stroke="#000000" points="487.5001,-2172.4731 484,-2162.4731 480.5001,-2172.4731 487.5001,-2172.4731"/>
</g>
<!-- add singletons to container -->
<g id="node5" class="node">
<title>add singletons to container</title>
<path fill="#ffd700" stroke="#000000" d="M555.4671,-2090.4C555.4671,-2090.4 412.5329,-2090.4 412.5329,-2090.4 406.5329,-2090.4 400.5329,-2084.4 400.5329,-2078.4 400.5329,-2078.4 400.5329,-2066.4 400.5329,-2066.4 400.5329,-2060.4 406.5329,-2054.4 412.5329,-2054.4 412.5329,-2054.4 555.4671,-2054.4 555.4671,-2054.4 561.4671,-2054.4 567.4671,-2060.4 567.4671,-2066.4 567.4671,-2066.4 567.4671,-2078.4 567.4671,-2078.4 567.4671,-2084.4 561.4671,-2090.4 555.4671,-2090.4"/>
<text text-anchor="middle" x="484" y="-2068.2" font-family="Times,serif" font-size="14.00" fill="#000000">add singletons to container</text>
</g>
<!-- create container&#45;&gt;add singletons to container -->
<g id="edge4" class="edge">
<title>create container&#45;&gt;add singletons to container</title>
<path fill="none" stroke="#000000" d="M484,-2126.2314C484,-2118.531 484,-2109.3743 484,-2100.8166"/>
<polygon fill="#000000" stroke="#000000" points="487.5001,-2100.8132 484,-2090.8133 480.5001,-2100.8133 487.5001,-2100.8132"/>
</g>
<!-- add prototypes to container -->
<g id="node6" class="node">
<title>add prototypes to container</title>
<path fill="#ffd700" stroke="#000000" d="M556.2919,-2018.4C556.2919,-2018.4 411.7081,-2018.4 411.7081,-2018.4 405.7081,-2018.4 399.7081,-2012.4 399.7081,-2006.4 399.7081,-2006.4 399.7081,-1994.4 399.7081,-1994.4 399.7081,-1988.4 405.7081,-1982.4 411.7081,-1982.4 411.7081,-1982.4 556.2919,-1982.4 556.2919,-1982.4 562.2919,-1982.4 568.2919,-1988.4 568.2919,-1994.4 568.2919,-1994.4 568.2919,-2006.4 568.2919,-2006.4 568.2919,-2012.4 562.2919,-2018.4 556.2919,-2018.4"/>
<text text-anchor="middle" x="484" y="-1996.2" font-family="Times,serif" font-size="14.00" fill="#000000">add prototypes to container</text>
</g>
<!-- add singletons to container&#45;&gt;add prototypes to container -->
<g id="edge5" class="edge">
<title>add singletons to container&#45;&gt;add prototypes to container</title>
<path fill="none" stroke="#000000" d="M484,-2054.2314C484,-2046.531 484,-2037.3743 484,-2028.8166"/>
<polygon fill="#000000" stroke="#000000" points="487.5001,-2028.8132 484,-2018.8133 480.5001,-2028.8133 487.5001,-2028.8132"/>
</g>
<!-- invoke preBind hook -->
<g id="node7" class="node">
<title>invoke preBind hook</title>
<path fill="#00ced1" stroke="#000000" d="M539.2078,-1946.4C539.2078,-1946.4 428.7922,-1946.4 428.7922,-1946.4 422.7922,-1946.4 416.7922,-1940.4 416.7922,-1934.4 416.7922,-1934.4 416.7922,-1922.4 416.7922,-1922.4 416.7922,-1916.4 422.7922,-1910.4 428.7922,-1910.4 428.7922,-1910.4 539.2078,-1910.4 539.2078,-1910.4 545.2078,-1910.4 551.2078,-1916.4 551.2078,-1922.4 551.2078,-1922.4 551.2078,-1934.4 551.2078,-1934.4 551.2078,-1940.4 545.2078,-1946.4 539.2078,-1946.4"/>
<text text-anchor="middle" x="484" y="-1924.2" font-family="Times,serif" font-size="14.00" fill="#000000">invoke preBind hook</text>
</g>
<!-- add prototypes to container&#45;&gt;invoke preBind hook -->
<g id="edge6" class="edge">
<title>add prototypes to container&#45;&gt;invoke preBind hook</title>
<path fill="none" stroke="#000000" d="M484,-1982.2314C484,-1974.531 484,-1965.3743 484,-1956.8166"/>
<polygon fill="#000000" stroke="#000000" points="487.5001,-1956.8132 484,-1946.8133 480.5001,-1956.8133 487.5001,-1956.8132"/>
</g>
<!-- update framework status to Initialized -->
<g id="node8" class="node">
<title>update framework status to Initialized</title>
<path fill="#ffd700" stroke="#000000" d="M586.2611,-1874.4C586.2611,-1874.4 381.7389,-1874.4 381.7389,-1874.4 375.7389,-1874.4 369.7389,-1868.4 369.7389,-1862.4 369.7389,-1862.4 369.7389,-1850.4 369.7389,-1850.4 369.7389,-1844.4 375.7389,-1838.4 381.7389,-1838.4 381.7389,-1838.4 586.2611,-1838.4 586.2611,-1838.4 592.2611,-1838.4 598.2611,-1844.4 598.2611,-1850.4 598.2611,-1850.4 598.2611,-1862.4 598.2611,-1862.4 598.2611,-1868.4 592.2611,-1874.4 586.2611,-1874.4"/>
<text text-anchor="middle" x="484" y="-1852.2" font-family="Times,serif" font-size="14.00" fill="#000000">update framework status to Initialized</text>
</g>
<!-- invoke preBind hook&#45;&gt;update framework status to Initialized -->
<g id="edge7" class="edge">
<title>invoke preBind hook&#45;&gt;update framework status to Initialized</title>
<path fill="none" stroke="#000000" d="M484,-1910.2314C484,-1902.531 484,-1893.3743 484,-1884.8166"/>
<polygon fill="#000000" stroke="#000000" points="487.5001,-1884.8132 484,-1874.8133 480.5001,-1884.8133 487.5001,-1884.8132"/>
</g>
<!-- register providers -->
<g id="node9" class="node">
<title>register providers</title>
<path fill="#7fff00" stroke="#000000" d="M529.3477,-1797.6C529.3477,-1797.6 438.6523,-1797.6 438.6523,-1797.6 432.6523,-1797.6 426.6523,-1791.6 426.6523,-1785.6 426.6523,-1785.6 426.6523,-1773.6 426.6523,-1773.6 426.6523,-1767.6 432.6523,-1761.6 438.6523,-1761.6 438.6523,-1761.6 529.3477,-1761.6 529.3477,-1761.6 535.3477,-1761.6 541.3477,-1767.6 541.3477,-1773.6 541.3477,-1773.6 541.3477,-1785.6 541.3477,-1785.6 541.3477,-1791.6 535.3477,-1797.6 529.3477,-1797.6"/>
<text text-anchor="middle" x="484" y="-1775.4" font-family="Times,serif" font-size="14.00" fill="#000000">register providers</text>
</g>
<!-- update framework status to Initialized&#45;&gt;register providers -->
<g id="edge8" class="edge">
<title>update framework status to Initialized&#45;&gt;register providers</title>
<path fill="none" stroke="#000000" d="M484,-1838.1995C484,-1829.1132 484,-1817.9176 484,-1807.7549"/>
<polygon fill="#000000" stroke="#000000" points="487.5001,-1807.6698 484,-1797.6699 480.5001,-1807.6699 487.5001,-1807.6698"/>
</g>
<!-- register provider .:*scheduler.provider -->
<g id="node10" class="node">
<title>register provider .:*scheduler.provider</title>
<path fill="#ffd700" stroke="#000000" d="M242.8595,-1725.6C242.8595,-1725.6 35.1405,-1725.6 35.1405,-1725.6 29.1405,-1725.6 23.1405,-1719.6 23.1405,-1713.6 23.1405,-1713.6 23.1405,-1701.6 23.1405,-1701.6 23.1405,-1695.6 29.1405,-1689.6 35.1405,-1689.6 35.1405,-1689.6 242.8595,-1689.6 242.8595,-1689.6 248.8595,-1689.6 254.8595,-1695.6 254.8595,-1701.6 254.8595,-1701.6 254.8595,-1713.6 254.8595,-1713.6 254.8595,-1719.6 248.8595,-1725.6 242.8595,-1725.6"/>
<text text-anchor="middle" x="139" y="-1703.4" font-family="Times,serif" font-size="14.00" fill="#000000">register provider .:*scheduler.provider</text>
</g>
<!-- register providers&#45;&gt;register provider .:*scheduler.provider -->
<g id="edge9" class="edge">
<title>register providers&#45;&gt;register provider .:*scheduler.provider</title>
<path fill="none" stroke="#000000" d="M426.643,-1767.6298C374.6428,-1756.7776 296.9515,-1740.5638 235.4151,-1727.7214"/>
<polygon fill="#000000" stroke="#000000" points="235.7994,-1724.2263 225.2953,-1725.6094 234.3693,-1731.0787 235.7994,-1724.2263"/>
</g>
<!-- register provider .:*web.provider -->
<g id="node11" class="node">
<title>register provider .:*web.provider</title>
<path fill="#ffd700" stroke="#000000" d="M461.5408,-1725.6C461.5408,-1725.6 284.4592,-1725.6 284.4592,-1725.6 278.4592,-1725.6 272.4592,-1719.6 272.4592,-1713.6 272.4592,-1713.6 272.4592,-1701.6 272.4592,-1701.6 272.4592,-1695.6 278.4592,-1689.6 284.4592,-1689.6 284.4592,-1689.6 461.5408,-1689.6 461.5408,-1689.6 467.5408,-1689.6 473.5408,-1695.6 473.5408,-1701.6 473.5408,-1701.6 473.5408,-1713.6 473.5408,-1713.6 473.5408,-1719.6 467.5408,-1725.6 461.5408,-1725.6"/>
<text text-anchor="middle" x="373" y="-1703.4" font-family="Times,serif" font-size="14.00" fill="#000000">register provider .:*web.provider</text>
</g>
<!-- register providers&#45;&gt;register provider .:*web.provider -->
<g id="edge10" class="edge">
<title>register providers&#45;&gt;register provider .:*web.provider</title>
<path fill="none" stroke="#000000" d="M455.99,-1761.4314C441.9239,-1752.3074 424.706,-1741.139 409.6067,-1731.3449"/>
<polygon fill="#000000" stroke="#000000" points="411.2953,-1728.2684 401.001,-1725.7628 407.486,-1734.1412 411.2953,-1728.2684"/>
</g>
<!-- register provider .:*event.provider -->
<g id="node12" class="node">
<title>register provider .:*event.provider</title>
<path fill="#ffd700" stroke="#000000" d="M688.0394,-1725.6C688.0394,-1725.6 503.9606,-1725.6 503.9606,-1725.6 497.9606,-1725.6 491.9606,-1719.6 491.9606,-1713.6 491.9606,-1713.6 491.9606,-1701.6 491.9606,-1701.6 491.9606,-1695.6 497.9606,-1689.6 503.9606,-1689.6 503.9606,-1689.6 688.0394,-1689.6 688.0394,-1689.6 694.0394,-1689.6 700.0394,-1695.6 700.0394,-1701.6 700.0394,-1701.6 700.0394,-1713.6 700.0394,-1713.6 700.0394,-1719.6 694.0394,-1725.6 688.0394,-1725.6"/>
<text text-anchor="middle" x="596" y="-1703.4" font-family="Times,serif" font-size="14.00" fill="#000000">register provider .:*event.provider</text>
</g>
<!-- register providers&#45;&gt;register provider .:*event.provider -->
<g id="edge11" class="edge">
<title>register providers&#45;&gt;register provider .:*event.provider</title>
<path fill="none" stroke="#000000" d="M512.2623,-1761.4314C526.4552,-1752.3074 543.8282,-1741.139 559.0636,-1731.3449"/>
<polygon fill="#000000" stroke="#000000" points="561.2276,-1734.1146 567.7467,-1725.7628 557.4422,-1728.2263 561.2276,-1734.1146"/>
</g>
<!-- register provider github.com/mylxsw/glacier/example/job:job.ServiceProvider -->
<g id="node13" class="node">
<title>register provider github.com/mylxsw/glacier/example/job:job.ServiceProvider</title>
<path fill="#ffd700" stroke="#000000" d="M1160.053,-1725.6C1160.053,-1725.6 729.947,-1725.6 729.947,-1725.6 723.947,-1725.6 717.947,-1719.6 717.947,-1713.6 717.947,-1713.6 717.947,-1701.6 717.947,-1701.6 717.947,-1695.6 723.947,-1689.6 729.947,-1689.6 729.947,-1689.6 1160.053,-1689.6 1160.053,-1689.6 1166.053,-1689.6 1172.053,-1695.6 1172.053,-1701.6 1172.053,-1701.6 1172.053,-1713.6 1172.053,-1713.6 1172.053,-1719.6 1166.053,-1725.6 1160.053,-1725.6"/>
<text text-anchor="middle" x="945" y="-1703.4" font-family="Times,serif" font-size="14.00" fill="#000000">register provider github.com/mylxsw/glacier/example/job:job.ServiceProvider</text>
</g>
<!-- register providers&#45;&gt;register provider github.com/mylxsw/glacier/example/job:job.ServiceProvider -->
<g id="edge12" class="edge">
<title>register providers&#45;&gt;register provider github.com/mylxsw/glacier/example/job:job.ServiceProvider</title>
<path fill="none" stroke="#000000" d="M541.4539,-1770.6267C610.6656,-1759.8171 728.9309,-1741.3462 819.5945,-1727.1861"/>
<polygon fill="#000000" stroke="#000000" points="820.3303,-1730.6137 829.6704,-1725.6124 819.25,-1723.6976 820.3303,-1730.6137"/>
</g>
<!-- register providers done -->
<g id="node14" class="node">
<title>register providers done</title>
<path fill="#ffd700" stroke="#000000" d="M439.5618,-1653.6C439.5618,-1653.6 318.4382,-1653.6 318.4382,-1653.6 312.4382,-1653.6 306.4382,-1647.6 306.4382,-1641.6 306.4382,-1641.6 306.4382,-1629.6 306.4382,-1629.6 306.4382,-1623.6 312.4382,-1617.6 318.4382,-1617.6 318.4382,-1617.6 439.5618,-1617.6 439.5618,-1617.6 445.5618,-1617.6 451.5618,-1623.6 451.5618,-1629.6 451.5618,-1629.6 451.5618,-1641.6 451.5618,-1641.6 451.5618,-1647.6 445.5618,-1653.6 439.5618,-1653.6"/>
<text text-anchor="middle" x="379" y="-1631.4" font-family="Times,serif" font-size="14.00" fill="#000000">register providers done</text>
</g>
<!-- register provider .:*scheduler.provider&#45;&gt;register providers done -->
<g id="edge13" class="edge">
<title>register provider .:*scheduler.provider&#45;&gt;register providers done</title>
<path fill="none" stroke="#000000" d="M199.2523,-1689.5243C232.6323,-1679.5103 274.2932,-1667.012 309.0999,-1656.57"/>
<polygon fill="#000000" stroke="#000000" points="310.1503,-1659.9091 318.7229,-1653.6831 308.1389,-1653.2043 310.1503,-1659.9091"/>
</g>
<!-- register provider .:*web.provider&#45;&gt;register providers done -->
<g id="edge14" class="edge">
<title>register provider .:*web.provider&#45;&gt;register providers done</title>
<path fill="none" stroke="#000000" d="M374.5141,-1689.4314C375.1558,-1681.731 375.9188,-1672.5743 376.6319,-1664.0166"/>
<polygon fill="#000000" stroke="#000000" points="380.1229,-1664.2694 377.4656,-1654.0133 373.1471,-1663.688 380.1229,-1664.2694"/>
</g>
<!-- register provider .:*event.provider&#45;&gt;register providers done -->
<g id="edge15" class="edge">
<title>register provider .:*event.provider&#45;&gt;register providers done</title>
<path fill="none" stroke="#000000" d="M541.5218,-1689.5243C511.5987,-1679.5959 474.3157,-1667.2255 443.0096,-1656.8382"/>
<polygon fill="#000000" stroke="#000000" points="444.094,-1653.5104 433.5006,-1653.6831 441.8896,-1660.1543 444.094,-1653.5104"/>
</g>
<!-- register provider github.com/mylxsw/glacier/example/job:job.ServiceProvider&#45;&gt;register providers done -->
<g id="edge16" class="edge">
<title>register provider github.com/mylxsw/glacier/example/job:job.ServiceProvider&#45;&gt;register providers done</title>
<path fill="none" stroke="#000000" d="M803.2697,-1689.5707C695.5962,-1675.8737 551.2275,-1657.5088 461.7103,-1646.1215"/>
<polygon fill="#000000" stroke="#000000" points="461.9719,-1642.6266 451.6101,-1644.8366 461.0885,-1649.5706 461.9719,-1642.6266"/>
</g>
<!-- register services -->
<g id="node15" class="node">
<title>register services</title>
<path fill="#7fff00" stroke="#000000" d="M420.0613,-1581.6C420.0613,-1581.6 337.9387,-1581.6 337.9387,-1581.6 331.9387,-1581.6 325.9387,-1575.6 325.9387,-1569.6 325.9387,-1569.6 325.9387,-1557.6 325.9387,-1557.6 325.9387,-1551.6 331.9387,-1545.6 337.9387,-1545.6 337.9387,-1545.6 420.0613,-1545.6 420.0613,-1545.6 426.0613,-1545.6 432.0613,-1551.6 432.0613,-1557.6 432.0613,-1557.6 432.0613,-1569.6 432.0613,-1569.6 432.0613,-1575.6 426.0613,-1581.6 420.0613,-1581.6"/>
<text text-anchor="middle" x="379" y="-1559.4" font-family="Times,serif" font-size="14.00" fill="#000000">register services</text>
</g>
<!-- register providers done&#45;&gt;register services -->
<g id="edge17" class="edge">
<title>register providers done&#45;&gt;register services</title>
<path fill="none" stroke="#000000" d="M379,-1617.4314C379,-1609.731 379,-1600.5743 379,-1592.0166"/>
<polygon fill="#000000" stroke="#000000" points="382.5001,-1592.0132 379,-1582.0133 375.5001,-1592.0133 382.5001,-1592.0132"/>
</g>
<!-- register service .:*service.Demo2Service -->
<g id="node16" class="node">
<title>register service .:*service.Demo2Service</title>
<path fill="#ffd700" stroke="#000000" d="M489.8356,-1509.6C489.8356,-1509.6 268.1644,-1509.6 268.1644,-1509.6 262.1644,-1509.6 256.1644,-1503.6 256.1644,-1497.6 256.1644,-1497.6 256.1644,-1485.6 256.1644,-1485.6 256.1644,-1479.6 262.1644,-1473.6 268.1644,-1473.6 268.1644,-1473.6 489.8356,-1473.6 489.8356,-1473.6 495.8356,-1473.6 501.8356,-1479.6 501.8356,-1485.6 501.8356,-1485.6 501.8356,-1497.6 501.8356,-1497.6 501.8356,-1503.6 495.8356,-1509.6 489.8356,-1509.6"/>
<text text-anchor="middle" x="379" y="-1487.4" font-family="Times,serif" font-size="14.00" fill="#000000">register service .:*service.Demo2Service</text>
</g>
<!-- register services&#45;&gt;register service .:*service.Demo2Service -->
<g id="edge18" class="edge">
<title>register services&#45;&gt;register service .:*service.Demo2Service</title>
<path fill="none" stroke="#000000" d="M379,-1545.4314C379,-1537.731 379,-1528.5743 379,-1520.0166"/>
<polygon fill="#000000" stroke="#000000" points="382.5001,-1520.0132 379,-1510.0133 375.5001,-1520.0133 382.5001,-1520.0132"/>
</g>
<!-- register services done -->
<g id="node17" class="node">
<title>register services done</title>
<path fill="#ffd700" stroke="#000000" d="M435.7753,-1437.6C435.7753,-1437.6 322.2247,-1437.6 322.2247,-1437.6 316.2247,-1437.6 310.2247,-1431.6 310.2247,-1425.6 310.2247,-1425.6 310.2247,-1413.6 310.2247,-1413.6 310.2247,-1407.6 316.2247,-1401.6 322.2247,-1401.6 322.2247,-1401.6 435.7753,-1401.6 435.7753,-1401.6 441.7753,-1401.6 447.7753,-1407.6 447.7753,-1413.6 447.7753,-1413.6 447.7753,-1425.6 447.7753,-1425.6 447.7753,-1431.6 441.7753,-1437.6 435.7753,-1437.6"/>
<text text-anchor="middle" x="379" y="-1415.4" font-family="Times,serif" font-size="14.00" fill="#000000">register services done</text>
</g>
<!-- register service .:*service.Demo2Service&#45;&gt;register services done -->
<g id="edge19" class="edge">
<title>register service .:*service.Demo2Service&#45;&gt;register services done</title>
<path fill="none" stroke="#000000" d="M379,-1473.4314C379,-1465.731 379,-1456.5743 379,-1448.0166"/>
<polygon fill="#000000" stroke="#000000" points="382.5001,-1448.0132 379,-1438.0133 375.5001,-1448.0133 382.5001,-1448.0132"/>
</g>
<!-- start async runners -->
<g id="node18" class="node">
<title>start async runners</title>
<path fill="#7fff00" stroke="#000000" d="M427.4552,-1365.6C427.4552,-1365.6 330.5448,-1365.6 330.5448,-1365.6 324.5448,-1365.6 318.5448,-1359.6 318.5448,-1353.6 318.5448,-1353.6 318.5448,-1341.6 318.5448,-1341.6 318.5448,-1335.6 324.5448,-1329.6 330.5448,-1329.6 330.5448,-1329.6 427.4552,-1329.6 427.4552,-1329.6 433.4552,-1329.6 439.4552,-1335.6 439.4552,-1341.6 439.4552,-1341.6 439.4552,-1353.6 439.4552,-1353.6 439.4552,-1359.6 433.4552,-1365.6 427.4552,-1365.6"/>
<text text-anchor="middle" x="379" y="-1343.4" font-family="Times,serif" font-size="14.00" fill="#000000">start async runners</text>
</g>
<!-- register services done&#45;&gt;start async runners -->
<g id="edge20" class="edge">
<title>register services done&#45;&gt;start async runners</title>
<path fill="none" stroke="#000000" d="M379,-1401.4314C379,-1393.731 379,-1384.5743 379,-1376.0166"/>
<polygon fill="#000000" stroke="#000000" points="382.5001,-1376.0132 379,-1366.0133 375.5001,-1376.0133 382.5001,-1376.0132"/>
</g>
<!-- start async runner 0 -->
<g id="node19" class="node">
<title>start async runner 0</title>
<path fill="#ffd700" stroke="#000000" d="M286.0106,-1293.6C286.0106,-1293.6 183.9894,-1293.6 183.9894,-1293.6 177.9894,-1293.6 171.9894,-1287.6 171.9894,-1281.6 171.9894,-1281.6 171.9894,-1269.6 171.9894,-1269.6 171.9894,-1263.6 177.9894,-1257.6 183.9894,-1257.6 183.9894,-1257.6 286.0106,-1257.6 286.0106,-1257.6 292.0106,-1257.6 298.0106,-1263.6 298.0106,-1269.6 298.0106,-1269.6 298.0106,-1281.6 298.0106,-1281.6 298.0106,-1287.6 292.0106,-1293.6 286.0106,-1293.6"/>
<text text-anchor="middle" x="235" y="-1271.4" font-family="Times,serif" font-size="14.00" fill="#000000">start async runner 0</text>
</g>
<!-- start async runners&#45;&gt;start async runner 0 -->
<g id="edge21" class="edge">
<title>start async runners&#45;&gt;start async runner 0</title>
<path fill="none" stroke="#000000" d="M342.6627,-1329.4314C323.6604,-1319.9302 300.2242,-1308.2121 280.0748,-1298.1374"/>
<polygon fill="#000000" stroke="#000000" points="281.5855,-1294.9797 271.076,-1293.638 278.455,-1301.2407 281.5855,-1294.9797"/>
</g>
<!-- start async runner 1 -->
<g id="node20" class="node">
<title>start async runner 1</title>
<path fill="#ffd700" stroke="#000000" d="M430.0106,-1293.6C430.0106,-1293.6 327.9894,-1293.6 327.9894,-1293.6 321.9894,-1293.6 315.9894,-1287.6 315.9894,-1281.6 315.9894,-1281.6 315.9894,-1269.6 315.9894,-1269.6 315.9894,-1263.6 321.9894,-1257.6 327.9894,-1257.6 327.9894,-1257.6 430.0106,-1257.6 430.0106,-1257.6 436.0106,-1257.6 442.0106,-1263.6 442.0106,-1269.6 442.0106,-1269.6 442.0106,-1281.6 442.0106,-1281.6 442.0106,-1287.6 436.0106,-1293.6 430.0106,-1293.6"/>
<text text-anchor="middle" x="379" y="-1271.4" font-family="Times,serif" font-size="14.00" fill="#000000">start async runner 1</text>
</g>
<!-- start async runners&#45;&gt;start async runner 1 -->
<g id="edge22" class="edge">
<title>start async runners&#45;&gt;start async runner 1</title>
<path fill="none" stroke="#000000" d="M379,-1329.4314C379,-1321.731 379,-1312.5743 379,-1304.0166"/>
<polygon fill="#000000" stroke="#000000" points="382.5001,-1304.0132 379,-1294.0133 375.5001,-1304.0133 382.5001,-1304.0132"/>
</g>
<!-- start async runner 2 -->
<g id="node21" class="node">
<title>start async runner 2</title>
<path fill="#ffd700" stroke="#000000" d="M574.0106,-1293.6C574.0106,-1293.6 471.9894,-1293.6 471.9894,-1293.6 465.9894,-1293.6 459.9894,-1287.6 459.9894,-1281.6 459.9894,-1281.6 459.9894,-1269.6 459.9894,-1269.6 459.9894,-1263.6 465.9894,-1257.6 471.9894,-1257.6 471.9894,-1257.6 574.0106,-1257.6 574.0106,-1257.6 580.0106,-1257.6 586.0106,-1263.6 586.0106,-1269.6 586.0106,-1269.6 586.0106,-1281.6 586.0106,-1281.6 586.0106,-1287.6 580.0106,-1293.6 574.0106,-1293.6"/>
<text text-anchor="middle" x="523" y="-1271.4" font-family="Times,serif" font-size="14.00" fill="#000000">start async runner 2</text>
</g>
<!-- start async runners&#45;&gt;start async runner 2 -->
<g id="edge23" class="edge">
<title>start async runners&#45;&gt;start async runner 2</title>
<path fill="none" stroke="#000000" d="M415.3373,-1329.4314C434.3396,-1319.9302 457.7758,-1308.2121 477.9252,-1298.1374"/>
<polygon fill="#000000" stroke="#000000" points="479.545,-1301.2407 486.924,-1293.638 476.4145,-1294.9797 479.545,-1301.2407"/>
</g>
<!-- all async runners started -->
<g id="node22" class="node">
<title>all async runners started</title>
<path fill="#ffd700" stroke="#000000" d="M442.666,-1221.6C442.666,-1221.6 315.334,-1221.6 315.334,-1221.6 309.334,-1221.6 303.334,-1215.6 303.334,-1209.6 303.334,-1209.6 303.334,-1197.6 303.334,-1197.6 303.334,-1191.6 309.334,-1185.6 315.334,-1185.6 315.334,-1185.6 442.666,-1185.6 442.666,-1185.6 448.666,-1185.6 454.666,-1191.6 454.666,-1197.6 454.666,-1197.6 454.666,-1209.6 454.666,-1209.6 454.666,-1215.6 448.666,-1221.6 442.666,-1221.6"/>
<text text-anchor="middle" x="379" y="-1199.4" font-family="Times,serif" font-size="14.00" fill="#000000">all async runners started</text>
</g>
<!-- start async runner 0&#45;&gt;all async runners started -->
<g id="edge24" class="edge">
<title>start async runner 0&#45;&gt;all async runners started</title>
<path fill="none" stroke="#000000" d="M271.3373,-1257.4314C290.3396,-1247.9302 313.7758,-1236.2121 333.9252,-1226.1374"/>
<polygon fill="#000000" stroke="#000000" points="335.545,-1229.2407 342.924,-1221.638 332.4145,-1222.9797 335.545,-1229.2407"/>
</g>
<!-- start async runner 1&#45;&gt;all async runners started -->
<g id="edge25" class="edge">
<title>start async runner 1&#45;&gt;all async runners started</title>
<path fill="none" stroke="#000000" d="M379,-1257.4314C379,-1249.731 379,-1240.5743 379,-1232.0166"/>
<polygon fill="#000000" stroke="#000000" points="382.5001,-1232.0132 379,-1222.0133 375.5001,-1232.0133 382.5001,-1232.0132"/>
</g>
<!-- start async runner 2&#45;&gt;all async runners started -->
<g id="edge26" class="edge">
<title>start async runner 2&#45;&gt;all async runners started</title>
<path fill="none" stroke="#000000" d="M486.6627,-1257.4314C467.6604,-1247.9302 444.2242,-1236.2121 424.0748,-1226.1374"/>
<polygon fill="#000000" stroke="#000000" points="425.5855,-1222.9797 415.076,-1221.638 422.455,-1229.2407 425.5855,-1222.9797"/>
</g>
<!-- init services -->
<g id="node23" class="node">
<title>init services</title>
<path fill="#7fff00" stroke="#000000" d="M408.7564,-1149.6C408.7564,-1149.6 349.2436,-1149.6 349.2436,-1149.6 343.2436,-1149.6 337.2436,-1143.6 337.2436,-1137.6 337.2436,-1137.6 337.2436,-1125.6 337.2436,-1125.6 337.2436,-1119.6 343.2436,-1113.6 349.2436,-1113.6 349.2436,-1113.6 408.7564,-1113.6 408.7564,-1113.6 414.7564,-1113.6 420.7564,-1119.6 420.7564,-1125.6 420.7564,-1125.6 420.7564,-1137.6 420.7564,-1137.6 420.7564,-1143.6 414.7564,-1149.6 408.7564,-1149.6"/>
<text text-anchor="middle" x="379" y="-1127.4" font-family="Times,serif" font-size="14.00" fill="#000000">init services</text>
</g>
<!-- all async runners started&#45;&gt;init services -->
<g id="edge27" class="edge">
<title>all async runners started&#45;&gt;init services</title>
<path fill="none" stroke="#000000" d="M379,-1185.4314C379,-1177.731 379,-1168.5743 379,-1160.0166"/>
<polygon fill="#000000" stroke="#000000" points="382.5001,-1160.0132 379,-1150.0133 375.5001,-1160.0133 382.5001,-1160.0132"/>
</g>
<!-- booting providers -->
<g id="node24" class="node">
<title>booting providers</title>
<path fill="#7fff00" stroke="#000000" d="M424.6523,-1077.6C424.6523,-1077.6 333.3477,-1077.6 333.3477,-1077.6 327.3477,-1077.6 321.3477,-1071.6 321.3477,-1065.6 321.3477,-1065.6 321.3477,-1053.6 321.3477,-1053.6 321.3477,-1047.6 327.3477,-1041.6 333.3477,-1041.6 333.3477,-1041.6 424.6523,-1041.6 424.6523,-1041.6 430.6523,-1041.6 436.6523,-1047.6 436.6523,-1053.6 436.6523,-1053.6 436.6523,-1065.6 436.6523,-1065.6 436.6523,-1071.6 430.6523,-1077.6 424.6523,-1077.6"/>
<text text-anchor="middle" x="379" y="-1055.4" font-family="Times,serif" font-size="14.00" fill="#000000">booting providers</text>
</g>
<!-- init services&#45;&gt;booting providers -->
<g id="edge28" class="edge">
<title>init services&#45;&gt;booting providers</title>
<path fill="none" stroke="#000000" d="M379,-1113.4314C379,-1105.731 379,-1096.5743 379,-1088.0166"/>
<polygon fill="#000000" stroke="#000000" points="382.5001,-1088.0132 379,-1078.0133 375.5001,-1088.0133 382.5001,-1088.0132"/>
</g>
<!-- booting provider: .:*scheduler.provider -->
<g id="node25" class="node">
<title>booting provider: .:*scheduler.provider</title>
<path fill="#ffd700" stroke="#000000" d="M240.0548,-1005.6C240.0548,-1005.6 27.9452,-1005.6 27.9452,-1005.6 21.9452,-1005.6 15.9452,-999.6 15.9452,-993.6 15.9452,-993.6 15.9452,-981.6 15.9452,-981.6 15.9452,-975.6 21.9452,-969.6 27.9452,-969.6 27.9452,-969.6 240.0548,-969.6 240.0548,-969.6 246.0548,-969.6 252.0548,-975.6 252.0548,-981.6 252.0548,-981.6 252.0548,-993.6 252.0548,-993.6 252.0548,-999.6 246.0548,-1005.6 240.0548,-1005.6"/>
<text text-anchor="middle" x="134" y="-983.4" font-family="Times,serif" font-size="14.00" fill="#000000">booting provider: .:*scheduler.provider</text>
</g>
<!-- booting providers&#45;&gt;booting provider: .:*scheduler.provider -->
<g id="edge29" class="edge">
<title>booting providers&#45;&gt;booting provider: .:*scheduler.provider</title>
<path fill="none" stroke="#000000" d="M321.2487,-1042.6282C286.5747,-1032.4383 242.1881,-1019.3941 205.3338,-1008.5634"/>
<polygon fill="#000000" stroke="#000000" points="206.2277,-1005.1781 195.6465,-1005.7165 204.2539,-1011.8941 206.2277,-1005.1781"/>
</g>
<!-- booting provider: .:*web.provider -->
<g id="node26" class="node">
<title>booting provider: .:*web.provider</title>
<path fill="#ffd700" stroke="#000000" d="M463.7366,-1005.6C463.7366,-1005.6 282.2634,-1005.6 282.2634,-1005.6 276.2634,-1005.6 270.2634,-999.6 270.2634,-993.6 270.2634,-993.6 270.2634,-981.6 270.2634,-981.6 270.2634,-975.6 276.2634,-969.6 282.2634,-969.6 282.2634,-969.6 463.7366,-969.6 463.7366,-969.6 469.7366,-969.6 475.7366,-975.6 475.7366,-981.6 475.7366,-981.6 475.7366,-993.6 475.7366,-993.6 475.7366,-999.6 469.7366,-1005.6 463.7366,-1005.6"/>
<text text-anchor="middle" x="373" y="-983.4" font-family="Times,serif" font-size="14.00" fill="#000000">booting provider: .:*web.provider</text>
</g>
<!-- booting providers&#45;&gt;booting provider: .:*web.provider -->
<g id="edge30" class="edge">
<title>booting providers&#45;&gt;booting provider: .:*web.provider</title>
<path fill="none" stroke="#000000" d="M377.4859,-1041.4314C376.8442,-1033.731 376.0812,-1024.5743 375.3681,-1016.0166"/>
<polygon fill="#000000" stroke="#000000" points="378.8529,-1015.688 374.5344,-1006.0133 371.8771,-1016.2694 378.8529,-1015.688"/>
</g>
<!-- booting provider: .:*event.provider -->
<g id="node27" class="node">
<title>booting provider: .:*event.provider</title>
<path fill="#ffd700" stroke="#000000" d="M694.2352,-1005.6C694.2352,-1005.6 505.7648,-1005.6 505.7648,-1005.6 499.7648,-1005.6 493.7648,-999.6 493.7648,-993.6 493.7648,-993.6 493.7648,-981.6 493.7648,-981.6 493.7648,-975.6 499.7648,-969.6 505.7648,-969.6 505.7648,-969.6 694.2352,-969.6 694.2352,-969.6 700.2352,-969.6 706.2352,-975.6 706.2352,-981.6 706.2352,-981.6 706.2352,-993.6 706.2352,-993.6 706.2352,-999.6 700.2352,-1005.6 694.2352,-1005.6"/>
<text text-anchor="middle" x="600" y="-983.4" font-family="Times,serif" font-size="14.00" fill="#000000">booting provider: .:*event.provider</text>
</g>
<!-- booting providers&#45;&gt;booting provider: .:*event.provider -->
<g id="edge31" class="edge">
<title>booting providers&#45;&gt;booting provider: .:*event.provider</title>
<path fill="none" stroke="#000000" d="M434.4824,-1041.5243C464.9571,-1031.5959 502.9273,-1019.2255 534.8105,-1008.8382"/>
<polygon fill="#000000" stroke="#000000" points="536.0709,-1012.1087 544.4948,-1005.6831 533.9025,-1005.453 536.0709,-1012.1087"/>
</g>
<!-- booting provider: github.com/mylxsw/glacier/example/job:job.ServiceProvider -->
<g id="node28" class="node">
<title>booting provider: github.com/mylxsw/glacier/example/job:job.ServiceProvider</title>
<path fill="#ffd700" stroke="#000000" d="M1171.7485,-1005.6C1171.7485,-1005.6 736.2515,-1005.6 736.2515,-1005.6 730.2515,-1005.6 724.2515,-999.6 724.2515,-993.6 724.2515,-993.6 724.2515,-981.6 724.2515,-981.6 724.2515,-975.6 730.2515,-969.6 736.2515,-969.6 736.2515,-969.6 1171.7485,-969.6 1171.7485,-969.6 1177.7485,-969.6 1183.7485,-975.6 1183.7485,-981.6 1183.7485,-981.6 1183.7485,-993.6 1183.7485,-993.6 1183.7485,-999.6 1177.7485,-1005.6 1171.7485,-1005.6"/>
<text text-anchor="middle" x="954" y="-983.4" font-family="Times,serif" font-size="14.00" fill="#000000">booting provider: github.com/mylxsw/glacier/example/job:job.ServiceProvider</text>
</g>
<!-- booting providers&#45;&gt;booting provider: github.com/mylxsw/glacier/example/job:job.ServiceProvider -->
<g id="edge32" class="edge">
<title>booting providers&#45;&gt;booting provider: github.com/mylxsw/glacier/example/job:job.ServiceProvider</title>
<path fill="none" stroke="#000000" d="M436.7659,-1052.3667C520.9745,-1041.8223 680.4293,-1021.8558 800.1332,-1006.8668"/>
<polygon fill="#000000" stroke="#000000" points="800.6442,-1010.3302 810.1319,-1005.6148 799.7744,-1003.3845 800.6442,-1010.3302"/>
</g>
<!-- all providers booted -->
<g id="node29" class="node">
<title>all providers booted</title>
<path fill="#ffd700" stroke="#000000" d="M559.972,-933.6C559.972,-933.6 456.028,-933.6 456.028,-933.6 450.028,-933.6 444.028,-927.6 444.028,-921.6 444.028,-921.6 444.028,-909.6 444.028,-909.6 444.028,-903.6 450.028,-897.6 456.028,-897.6 456.028,-897.6 559.972,-897.6 559.972,-897.6 565.972,-897.6 571.972,-903.6 571.972,-909.6 571.972,-909.6 571.972,-921.6 571.972,-921.6 571.972,-927.6 565.972,-933.6 559.972,-933.6"/>
<text text-anchor="middle" x="508" y="-911.4" font-family="Times,serif" font-size="14.00" fill="#000000">all providers booted</text>
</g>
<!-- booting provider: .:*scheduler.provider&#45;&gt;all providers booted -->
<g id="edge33" class="edge">
<title>booting provider: .:*scheduler.provider&#45;&gt;all providers booted</title>
<path fill="none" stroke="#000000" d="M227.8932,-969.5243C291.6092,-957.2581 374.6868,-941.2646 433.7798,-929.8884"/>
<polygon fill="#000000" stroke="#000000" points="434.6284,-933.2894 443.7864,-927.962 433.3051,-926.4156 434.6284,-933.2894"/>
</g>
<!-- booting provider: .:*web.provider&#45;&gt;all providers booted -->
<g id="edge34" class="edge">
<title>booting provider: .:*web.provider&#45;&gt;all providers booted</title>
<path fill="none" stroke="#000000" d="M407.0662,-969.4314C424.6533,-960.0516 446.2916,-948.5112 465.0168,-938.5244"/>
<polygon fill="#000000" stroke="#000000" points="466.7682,-941.557 473.9447,-933.7628 463.4741,-935.3805 466.7682,-941.557"/>
</g>
<!-- booting provider: .:*event.provider&#45;&gt;all providers booted -->
<g id="edge35" class="edge">
<title>booting provider: .:*event.provider&#45;&gt;all providers booted</title>
<path fill="none" stroke="#000000" d="M576.7845,-969.4314C565.453,-960.5632 551.6536,-949.7637 539.3973,-940.1718"/>
<polygon fill="#000000" stroke="#000000" points="541.2402,-937.1697 531.2081,-933.7628 536.926,-942.6822 541.2402,-937.1697"/>
</g>
<!-- booting provider: github.com/mylxsw/glacier/example/job:job.ServiceProvider&#45;&gt;all providers booted -->
<g id="edge36" class="edge">
<title>booting provider: github.com/mylxsw/glacier/example/job:job.ServiceProvider&#45;&gt;all providers booted</title>
<path fill="none" stroke="#000000" d="M842.3186,-969.5707C761.0391,-956.4494 653.2236,-939.0442 582.2916,-927.5933"/>
<polygon fill="#000000" stroke="#000000" points="582.5314,-924.0867 572.1014,-925.9482 581.4157,-930.9973 582.5314,-924.0867"/>
</g>
<!-- start daemon providers -->
<g id="node30" class="node">
<title>start daemon providers</title>
<path fill="#7fff00" stroke="#000000" d="M568.2921,-861.6C568.2921,-861.6 447.7079,-861.6 447.7079,-861.6 441.7079,-861.6 435.7079,-855.6 435.7079,-849.6 435.7079,-849.6 435.7079,-837.6 435.7079,-837.6 435.7079,-831.6 441.7079,-825.6 447.7079,-825.6 447.7079,-825.6 568.2921,-825.6 568.2921,-825.6 574.2921,-825.6 580.2921,-831.6 580.2921,-837.6 580.2921,-837.6 580.2921,-849.6 580.2921,-849.6 580.2921,-855.6 574.2921,-861.6 568.2921,-861.6"/>
<text text-anchor="middle" x="508" y="-839.4" font-family="Times,serif" font-size="14.00" fill="#000000">start daemon providers</text>
</g>
<!-- all providers booted&#45;&gt;start daemon providers -->
<g id="edge37" class="edge">
<title>all providers booted&#45;&gt;start daemon providers</title>
<path fill="none" stroke="#000000" d="M508,-897.4314C508,-889.731 508,-880.5743 508,-872.0166"/>
<polygon fill="#000000" stroke="#000000" points="511.5001,-872.0132 508,-862.0133 504.5001,-872.0133 511.5001,-872.0132"/>
</g>
<!-- start daemon provider: .:*scheduler.provider -->
<g id="node31" class="node">
<title>start daemon provider: .:*scheduler.provider</title>
<path fill="#ffd700" stroke="#000000" d="M360.6945,-789.6C360.6945,-789.6 119.3055,-789.6 119.3055,-789.6 113.3055,-789.6 107.3055,-783.6 107.3055,-777.6 107.3055,-777.6 107.3055,-765.6 107.3055,-765.6 107.3055,-759.6 113.3055,-753.6 119.3055,-753.6 119.3055,-753.6 360.6945,-753.6 360.6945,-753.6 366.6945,-753.6 372.6945,-759.6 372.6945,-765.6 372.6945,-765.6 372.6945,-777.6 372.6945,-777.6 372.6945,-783.6 366.6945,-789.6 360.6945,-789.6"/>
<text text-anchor="middle" x="240" y="-767.4" font-family="Times,serif" font-size="14.00" fill="#000000">start daemon provider: .:*scheduler.provider</text>
</g>
<!-- start daemon providers&#45;&gt;start daemon provider: .:*scheduler.provider -->
<g id="edge38" class="edge">
<title>start daemon providers&#45;&gt;start daemon provider: .:*scheduler.provider</title>
<path fill="none" stroke="#000000" d="M440.7182,-825.5243C403.1253,-815.4247 356.1267,-802.7982 317.0602,-792.3027"/>
<polygon fill="#000000" stroke="#000000" points="317.8751,-788.8976 307.3095,-789.6831 316.0589,-795.6579 317.8751,-788.8976"/>
</g>
<!-- start daemon provider: .:*web.provider -->
<g id="node32" class="node">
<title>start daemon provider: .:*web.provider</title>
<path fill="#ffd700" stroke="#000000" d="M613.376,-789.6C613.376,-789.6 402.624,-789.6 402.624,-789.6 396.624,-789.6 390.624,-783.6 390.624,-777.6 390.624,-777.6 390.624,-765.6 390.624,-765.6 390.624,-759.6 396.624,-753.6 402.624,-753.6 402.624,-753.6 613.376,-753.6 613.376,-753.6 619.376,-753.6 625.376,-759.6 625.376,-765.6 625.376,-765.6 625.376,-777.6 625.376,-777.6 625.376,-783.6 619.376,-789.6 613.376,-789.6"/>
<text text-anchor="middle" x="508" y="-767.4" font-family="Times,serif" font-size="14.00" fill="#000000">start daemon provider: .:*web.provider</text>
</g>
<!-- start daemon providers&#45;&gt;start daemon provider: .:*web.provider -->
<g id="edge39" class="edge">
<title>start daemon providers&#45;&gt;start daemon provider: .:*web.provider</title>
<path fill="none" stroke="#000000" d="M508,-825.4314C508,-817.731 508,-808.5743 508,-800.0166"/>
<polygon fill="#000000" stroke="#000000" points="511.5001,-800.0132 508,-790.0133 504.5001,-800.0133 511.5001,-800.0132"/>
</g>
<!-- start daemon provider: .:*event.provider -->
<g id="node33" class="node">
<title>start daemon provider: .:*event.provider</title>
<path fill="#ffd700" stroke="#000000" d="M872.8746,-789.6C872.8746,-789.6 655.1254,-789.6 655.1254,-789.6 649.1254,-789.6 643.1254,-783.6 643.1254,-777.6 643.1254,-777.6 643.1254,-765.6 643.1254,-765.6 643.1254,-759.6 649.1254,-753.6 655.1254,-753.6 655.1254,-753.6 872.8746,-753.6 872.8746,-753.6 878.8746,-753.6 884.8746,-759.6 884.8746,-765.6 884.8746,-765.6 884.8746,-777.6 884.8746,-777.6 884.8746,-783.6 878.8746,-789.6 872.8746,-789.6"/>
<text text-anchor="middle" x="764" y="-767.4" font-family="Times,serif" font-size="14.00" fill="#000000">start daemon provider: .:*event.provider</text>
</g>
<!-- start daemon providers&#45;&gt;start daemon provider: .:*event.provider -->
<g id="edge40" class="edge">
<title>start daemon providers&#45;&gt;start daemon provider: .:*event.provider</title>
<path fill="none" stroke="#000000" d="M572.2692,-825.5243C608.0267,-815.4675 652.6927,-802.9052 689.9155,-792.4363"/>
<polygon fill="#000000" stroke="#000000" points="691.0255,-795.7599 699.7044,-789.6831 689.1302,-789.0214 691.0255,-795.7599"/>
</g>
<!-- all daemon providers started -->
<g id="node34" class="node">
<title>all daemon providers started</title>
<path fill="#ffd700" stroke="#000000" d="M583.5022,-717.6C583.5022,-717.6 432.4978,-717.6 432.4978,-717.6 426.4978,-717.6 420.4978,-711.6 420.4978,-705.6 420.4978,-705.6 420.4978,-693.6 420.4978,-693.6 420.4978,-687.6 426.4978,-681.6 432.4978,-681.6 432.4978,-681.6 583.5022,-681.6 583.5022,-681.6 589.5022,-681.6 595.5022,-687.6 595.5022,-693.6 595.5022,-693.6 595.5022,-705.6 595.5022,-705.6 595.5022,-711.6 589.5022,-717.6 583.5022,-717.6"/>
<text text-anchor="middle" x="508" y="-695.4" font-family="Times,serif" font-size="14.00" fill="#000000">all daemon providers started</text>
</g>
<!-- start daemon provider: .:*scheduler.provider&#45;&gt;all daemon providers started -->
<g id="edge41" class="edge">
<title>start daemon provider: .:*scheduler.provider&#45;&gt;all daemon providers started</title>
<path fill="none" stroke="#000000" d="M307.2818,-753.5243C344.8747,-743.4247 391.8733,-730.7982 430.9398,-720.3027"/>
<polygon fill="#000000" stroke="#000000" points="431.9411,-723.6579 440.6905,-717.6831 430.1249,-716.8976 431.9411,-723.6579"/>
</g>
<!-- start daemon provider: .:*web.provider&#45;&gt;all daemon providers started -->
<g id="edge42" class="edge">
<title>start daemon provider: .:*web.provider&#45;&gt;all daemon providers started</title>
<path fill="none" stroke="#000000" d="M508,-753.4314C508,-745.731 508,-736.5743 508,-728.0166"/>
<polygon fill="#000000" stroke="#000000" points="511.5001,-728.0132 508,-718.0133 504.5001,-728.0133 511.5001,-728.0132"/>
</g>
<!-- start daemon provider: .:*event.provider&#45;&gt;all daemon providers started -->
<g id="edge43" class="edge">
<title>start daemon provider: .:*event.provider&#45;&gt;all daemon providers started</title>
<path fill="none" stroke="#000000" d="M699.7308,-753.5243C663.9733,-743.4675 619.3073,-730.9052 582.0845,-720.4363"/>
<polygon fill="#000000" stroke="#000000" points="582.8698,-717.0214 572.2956,-717.6831 580.9745,-723.7599 582.8698,-717.0214"/>
</g>
<!-- start services -->
<g id="node35" class="node">
<title>start services</title>
<path fill="#7fff00" stroke="#000000" d="M540.1858,-645.6C540.1858,-645.6 475.8142,-645.6 475.8142,-645.6 469.8142,-645.6 463.8142,-639.6 463.8142,-633.6 463.8142,-633.6 463.8142,-621.6 463.8142,-621.6 463.8142,-615.6 469.8142,-609.6 475.8142,-609.6 475.8142,-609.6 540.1858,-609.6 540.1858,-609.6 546.1858,-609.6 552.1858,-615.6 552.1858,-621.6 552.1858,-621.6 552.1858,-633.6 552.1858,-633.6 552.1858,-639.6 546.1858,-645.6 540.1858,-645.6"/>
<text text-anchor="middle" x="508" y="-623.4" font-family="Times,serif" font-size="14.00" fill="#000000">start services</text>
</g>
<!-- all daemon providers started&#45;&gt;start services -->
<g id="edge44" class="edge">
<title>all daemon providers started&#45;&gt;start services</title>
<path fill="none" stroke="#000000" d="M508,-681.4314C508,-673.731 508,-664.5743 508,-656.0166"/>
<polygon fill="#000000" stroke="#000000" points="511.5001,-656.0132 508,-646.0133 504.5001,-656.0133 511.5001,-656.0132"/>
</g>
<!-- start service .:*service.Demo2Service -->
<g id="node36" class="node">
<title>start service .:*service.Demo2Service</title>
<path fill="#ffd700" stroke="#000000" d="M609.9607,-573.6C609.9607,-573.6 406.0393,-573.6 406.0393,-573.6 400.0393,-573.6 394.0393,-567.6 394.0393,-561.6 394.0393,-561.6 394.0393,-549.6 394.0393,-549.6 394.0393,-543.6 400.0393,-537.6 406.0393,-537.6 406.0393,-537.6 609.9607,-537.6 609.9607,-537.6 615.9607,-537.6 621.9607,-543.6 621.9607,-549.6 621.9607,-549.6 621.9607,-561.6 621.9607,-561.6 621.9607,-567.6 615.9607,-573.6 609.9607,-573.6"/>
<text text-anchor="middle" x="508" y="-551.4" font-family="Times,serif" font-size="14.00" fill="#000000">start service .:*service.Demo2Service</text>
</g>
<!-- start services&#45;&gt;start service .:*service.Demo2Service -->
<g id="edge45" class="edge">
<title>start services&#45;&gt;start service .:*service.Demo2Service</title>
<path fill="none" stroke="#000000" d="M508,-609.4314C508,-601.731 508,-592.5743 508,-584.0166"/>
<polygon fill="#000000" stroke="#000000" points="511.5001,-584.0132 508,-574.0133 504.5001,-584.0133 511.5001,-584.0132"/>
</g>
<!-- update framework status to Started -->
<g id="node37" class="node">
<title>update framework status to Started</title>
<path fill="#ffd700" stroke="#000000" d="M601.6573,-501.6C601.6573,-501.6 414.3427,-501.6 414.3427,-501.6 408.3427,-501.6 402.3427,-495.6 402.3427,-489.6 402.3427,-489.6 402.3427,-477.6 402.3427,-477.6 402.3427,-471.6 408.3427,-465.6 414.3427,-465.6 414.3427,-465.6 601.6573,-465.6 601.6573,-465.6 607.6573,-465.6 613.6573,-471.6 613.6573,-477.6 613.6573,-477.6 613.6573,-489.6 613.6573,-489.6 613.6573,-495.6 607.6573,-501.6 601.6573,-501.6"/>
<text text-anchor="middle" x="508" y="-479.4" font-family="Times,serif" font-size="14.00" fill="#000000">update framework status to Started</text>
</g>
<!-- start service .:*service.Demo2Service&#45;&gt;update framework status to Started -->
<g id="edge46" class="edge">
<title>start service .:*service.Demo2Service&#45;&gt;update framework status to Started</title>
<path fill="none" stroke="#000000" d="M508,-537.4314C508,-529.731 508,-520.5743 508,-512.0166"/>
<polygon fill="#000000" stroke="#000000" points="511.5001,-512.0132 508,-502.0133 504.5001,-512.0133 511.5001,-512.0132"/>
</g>
<!-- invoke onServerReady hooks -->
<g id="node38" class="node">
<title>invoke onServerReady hooks</title>
<path fill="#00ced1" stroke="#000000" d="M586.3487,-424.8C586.3487,-424.8 429.6513,-424.8 429.6513,-424.8 423.6513,-424.8 417.6513,-418.8 417.6513,-412.8 417.6513,-412.8 417.6513,-400.8 417.6513,-400.8 417.6513,-394.8 423.6513,-388.8 429.6513,-388.8 429.6513,-388.8 586.3487,-388.8 586.3487,-388.8 592.3487,-388.8 598.3487,-394.8 598.3487,-400.8 598.3487,-400.8 598.3487,-412.8 598.3487,-412.8 598.3487,-418.8 592.3487,-424.8 586.3487,-424.8"/>
<text text-anchor="middle" x="508" y="-402.6" font-family="Times,serif" font-size="14.00" fill="#000000">invoke onServerReady hooks</text>
</g>
<!-- update framework status to Started&#45;&gt;invoke onServerReady hooks -->
<g id="edge47" class="edge">
<title>update framework status to Started&#45;&gt;invoke onServerReady hooks</title>
<path fill="none" stroke="#000000" d="M508,-465.3995C508,-456.3132 508,-445.1176 508,-434.9549"/>
<polygon fill="#000000" stroke="#000000" points="511.5001,-434.8698 508,-424.8699 504.5001,-434.8699 511.5001,-434.8698"/>
</g>
<!-- invoke onServerReady hook: .:func(infra.Resolver) error -->
<g id="node39" class="node">
<title>invoke onServerReady hook: .:func(infra.Resolver) error</title>
<path fill="#ffd700" stroke="#000000" d="M663.2661,-352.8C663.2661,-352.8 352.7339,-352.8 352.7339,-352.8 346.7339,-352.8 340.7339,-346.8 340.7339,-340.8 340.7339,-340.8 340.7339,-328.8 340.7339,-328.8 340.7339,-322.8 346.7339,-316.8 352.7339,-316.8 352.7339,-316.8 663.2661,-316.8 663.2661,-316.8 669.2661,-316.8 675.2661,-322.8 675.2661,-328.8 675.2661,-328.8 675.2661,-340.8 675.2661,-340.8 675.2661,-346.8 669.2661,-352.8 663.2661,-352.8"/>
<text text-anchor="middle" x="508" y="-330.6" font-family="Times,serif" font-size="14.00" fill="#000000">invoke onServerReady hook: .:func(infra.Resolver) error</text>
</g>
<!-- invoke onServerReady hooks&#45;&gt;invoke onServerReady hook: .:func(infra.Resolver) error -->
<g id="edge48" class="edge">
<title>invoke onServerReady hooks&#45;&gt;invoke onServerReady hook: .:func(infra.Resolver) error</title>
<path fill="none" stroke="#000000" d="M508,-388.6314C508,-380.931 508,-371.7743 508,-363.2166"/>
<polygon fill="#000000" stroke="#000000" points="511.5001,-363.2132 508,-353.2133 504.5001,-363.2133 511.5001,-363.2132"/>
</g>
<!-- launched -->
<g id="node40" class="node">
<title>launched</title>
<path fill="#ffd700" stroke="#000000" d="M529.036,-280.8C529.036,-280.8 486.964,-280.8 486.964,-280.8 480.964,-280.8 474.964,-274.8 474.964,-268.8 474.964,-268.8 474.964,-256.8 474.964,-256.8 474.964,-250.8 480.964,-244.8 486.964,-244.8 486.964,-244.8 529.036,-244.8 529.036,-244.8 535.036,-244.8 541.036,-250.8 541.036,-256.8 541.036,-256.8 541.036,-268.8 541.036,-268.8 541.036,-274.8 535.036,-280.8 529.036,-280.8"/>
<text text-anchor="middle" x="508" y="-258.6" font-family="Times,serif" font-size="14.00" fill="#000000">launched</text>
</g>
<!-- invoke onServerReady hook: .:func(infra.Resolver) error&#45;&gt;launched -->
<g id="edge49" class="edge">
<title>invoke onServerReady hook: .:func(infra.Resolver) error&#45;&gt;launched</title>
<path fill="none" stroke="#000000" d="M508,-316.6314C508,-308.931 508,-299.7743 508,-291.2166"/>
<polygon fill="#000000" stroke="#000000" points="511.5001,-291.2132 508,-281.2133 504.5001,-291.2133 511.5001,-291.2132"/>
</g>
<!-- invoke beforeServerStop hook -->
<g id="node41" class="node">
<title>invoke beforeServerStop hook</title>
<path fill="#00ced1" stroke="#000000" d="M589.5618,-196C589.5618,-196 426.4382,-196 426.4382,-196 420.4382,-196 414.4382,-190 414.4382,-184 414.4382,-184 414.4382,-172 414.4382,-172 414.4382,-166 420.4382,-160 426.4382,-160 426.4382,-160 589.5618,-160 589.5618,-160 595.5618,-160 601.5618,-166 601.5618,-172 601.5618,-172 601.5618,-184 601.5618,-184 601.5618,-190 595.5618,-196 589.5618,-196"/>
<text text-anchor="middle" x="508" y="-173.8" font-family="Times,serif" font-size="14.00" fill="#000000">invoke beforeServerStop hook</text>
</g>
<!-- launched&#45;&gt;invoke beforeServerStop hook -->
<g id="edge50" class="edge">
<title>launched&#45;&gt;invoke beforeServerStop hook</title>
<path fill="none" stroke="#000000" d="M508,-244.3997C508,-233.2112 508,-218.6983 508,-206.0954"/>
<polygon fill="#000000" stroke="#000000" points="511.5001,-206.0731 508,-196.0731 504.5001,-206.0731 511.5001,-206.0731"/>
</g>
<!-- all async runners stopped -->
<g id="node42" class="node">
<title>all async runners stopped</title>
<path fill="#ffd700" stroke="#000000" d="M574.8998,-124C574.8998,-124 441.1002,-124 441.1002,-124 435.1002,-124 429.1002,-118 429.1002,-112 429.1002,-112 429.1002,-100 429.1002,-100 429.1002,-94 435.1002,-88 441.1002,-88 441.1002,-88 574.8998,-88 574.8998,-88 580.8998,-88 586.8998,-94 586.8998,-100 586.8998,-100 586.8998,-112 586.8998,-112 586.8998,-118 580.8998,-124 574.8998,-124"/>
<text text-anchor="middle" x="508" y="-101.8" font-family="Times,serif" font-size="14.00" fill="#000000">all async runners stopped</text>
</g>
<!-- invoke beforeServerStop hook&#45;&gt;all async runners stopped -->
<g id="edge51" class="edge">
<title>invoke beforeServerStop hook&#45;&gt;all async runners stopped</title>
<path fill="none" stroke="#000000" d="M508,-159.8314C508,-152.131 508,-142.9743 508,-134.4166"/>
<polygon fill="#000000" stroke="#000000" points="511.5001,-134.4132 508,-124.4133 504.5001,-134.4133 511.5001,-134.4132"/>
</g>
<!-- shutdown -->
<g id="node43" class="node">
<title>shutdown</title>
<path fill="#ffd700" stroke="#000000" d="M531.4432,-52C531.4432,-52 484.5568,-52 484.5568,-52 478.5568,-52 472.5568,-46 472.5568,-40 472.5568,-40 472.5568,-28 472.5568,-28 472.5568,-22 478.5568,-16 484.5568,-16 484.5568,-16 531.4432,-16 531.4432,-16 537.4432,-16 543.4432,-22 543.4432,-28 543.4432,-28 543.4432,-40 543.4432,-40 543.4432,-46 537.4432,-52 531.4432,-52"/>
<text text-anchor="middle" x="508" y="-29.8" font-family="Times,serif" font-size="14.00" fill="#000000">shutdown</text>
</g>
<!-- all async runners stopped&#45;&gt;shutdown -->
<g id="edge52" class="edge">
<title>all async runners stopped&#45;&gt;shutdown</title>
<path fill="none" stroke="#000000" d="M508,-87.8314C508,-80.131 508,-70.9743 508,-62.4166"/>
<polygon fill="#000000" stroke="#000000" points="511.5001,-62.4132 508,-52.4133 504.5001,-62.4133 511.5001,-62.4132"/>
</g>
</g>
</svg>